<?xml version="1.0" encoding="utf-8"?>
<svg version="1.1" xmlns="http://www.w3.org/2000/svg" xmlns:xlink="http://www.w3.org/1999/xlink" x="0px" y="0px"
	 viewBox="0 0 48 48" style="enable-background:new 0 0 48 48;" xml:space="preserve">
<style type="text/css">
	.st0{fill:#F1F3F5;}
	.st1{fill:none;stroke:#71D7F7;stroke-width:1.64;stroke-linecap:round;stroke-linejoin:round;}
	.st2{fill:none;stroke:#A4AFB7;stroke-width:1.64;stroke-linecap:round;stroke-linejoin:round;}
</style>
<g>
	<path class="st0" d="M27.2,14l2.2,0.8c0.7-0.8,1.7-1.2,3-1.3s2.5,1.8,3.7,5.8L33,21.8c2.9-1.5,2.8-1-0.3,1.4
		c-1.8,1.4-6.8,0.6-10,5.2c-1,1.4,1.2,8.2-0.1,9.3c-0.6,0.5-2.6-0.5-3.2,0c-0.4,0.3-0.8-1.1-1.1-4.2l-1.6-0.8l2.2-3.8l3.5,0.8
		c1.1-1.7,2.1-2.9,2.8-3.6s2-1.7,3.6-2.8c-0.5-1.3-0.9-2.3-1.3-3s-1.1-1.6-2.1-2.8L27.2,14z"/>
	<polygon class="st1" points="30.8,34.7 27.8,36.4 28.5,33 26.1,30.6 29.1,30.2 30.8,27.1 32.4,30.2 
		35.4,30.6 33.1,33 33.7,36.4 	"/>
	<path class="st2" d="M22.2,32c0-4.7,3.8-8.6,8.6-8.6s8.6,3.8,8.6,8.6s-3.8,8.6-8.6,8.6S22.2,36.8,22.2,32L22.2,32z
		"/>
	<path class="st2" d="M22.5,29.8c-0.1,0-0.1,0-0.2,0c-3.6,0-6.6-3-6.6-6.6s3-6.6,6.6-6.6s6.6,3,6.6,6.6
		c0,0.1,0,0.4,0,0.5c0.8-0.2,1.9-0.3,2.8-0.2c0.7,0,1.1,0.2,1.6,0.3c0-0.1,0-0.1,0-0.1c0-0.5-0.1-1.4-0.1-1.9l3.1-2.4
		c0.3-0.2,0.3-0.6,0.2-0.9l-2.9-5c-0.2-0.3-0.6-0.4-0.9-0.3l-3.6,1.5c-0.8-0.6-1.6-1.1-2.5-1.4l-0.6-3.8c0-0.3-0.3-0.6-0.7-0.6h-5.8
		c-0.4,0-0.7,0.3-0.7,0.6L18,13.1c-0.9,0.4-1.7,0.9-2.5,1.4L12,13.1c-0.3-0.1-0.7,0-0.9,0.3l-2.9,5c-0.2,0.3-0.1,0.7,0.2,0.9
		l3.1,2.4c-0.1,0.5-0.1,0.9-0.1,1.4s0,1,0.1,1.4L8.3,27c-0.3,0.2-0.3,0.6-0.2,0.9l2.9,5c0.2,0.3,0.6,0.4,0.9,0.3l3.6-1.5
		c0.8,0.6,1.6,1.1,2.5,1.4l0.6,3.8c0,0.3,0.3,0.6,0.7,0.6h4.6c-1-1.5-1.7-3.3-1.7-5.3C22.2,31.5,22.2,30.6,22.5,29.8z"/>
</g>
</svg>