<svg width="48" height="48" viewBox="0 0 48 48" fill="none" xmlns="http://www.w3.org/2000/svg">
<path fill-rule="evenodd" clip-rule="evenodd" d="M30.7606 34.6689L27.7906 36.38L28.4506 32.9578L26.1406 30.5622L29.1106 30.22L30.7606 27.14L32.4106 30.22L35.3806 30.5622L33.0706 32.9578L33.7306 36.38L30.7606 34.6689V34.6689Z" stroke="#E879F9" stroke-width="1.64" stroke-linecap="round" stroke-linejoin="round"/>
<path fill-rule="evenodd" clip-rule="evenodd" d="M22.1797 32.024C22.1797 27.2861 26.0218 23.444 30.7597 23.444C35.4976 23.444 39.3397 27.2861 39.3397 32.024C39.3397 36.7618 35.4976 40.604 30.7597 40.604C26.0218 40.604 22.1797 36.7618 22.1797 32.024V32.024Z" stroke="#9DA5AE" stroke-width="1.64" stroke-linecap="round" stroke-linejoin="round"/>
<path fill-rule="evenodd" clip-rule="evenodd" d="M22.4529 29.7848C22.3327 29.7914 22.3319 29.8232 22.2092 29.8232C18.562 29.8232 15.596 26.8571 15.596 23.21C15.596 19.5628 18.562 16.5954 22.2092 16.5954C25.8563 16.5954 28.8224 19.5628 28.8224 23.21C28.8224 23.3314 28.8051 23.5637 28.7985 23.6839C29.6341 23.437 30.6512 23.4051 31.566 23.4535C32.2401 23.4892 32.6201 23.6209 33.1279 23.75C33.1292 23.6972 33.0983 23.6849 33.0983 23.6308C33.0983 23.1371 33.0437 22.2213 32.9857 21.7566L36.0494 19.3608C36.3266 19.143 36.3979 18.751 36.2236 18.4316L33.3196 13.4076C33.1467 13.0882 32.7547 12.972 32.4352 13.0882L28.8184 14.5402C28.0634 13.9594 27.2516 13.4802 26.3645 13.1172L25.8141 9.26945C25.7692 8.92097 25.4643 8.65961 25.1026 8.65961H19.2933C18.9303 8.65961 18.6267 8.92097 18.5818 9.26945L18.0301 13.1172C17.1443 13.4802 16.3312 13.9739 15.5775 14.5402L11.9607 13.0882C11.6281 12.9575 11.2492 13.0882 11.075 13.4076L8.17098 18.4316C7.98222 18.751 8.06934 19.143 8.34522 19.3608L11.4089 21.7566C11.3509 22.2213 11.3073 22.7004 11.3073 23.1796C11.3073 23.6588 11.3509 24.1379 11.4089 24.6026L8.34522 26.9984C8.06934 27.2162 7.99806 27.6082 8.17098 27.9276L11.075 32.9516C11.2492 33.271 11.6413 33.3872 11.9607 33.271L15.5775 31.819C16.3312 32.3998 17.1443 32.879 18.0301 33.242L18.5818 37.0898C18.6267 37.4382 18.9303 37.6996 19.2933 37.6996H23.8433C22.7979 36.2027 22.1801 34.3838 22.1801 32.4196C22.1801 31.5048 22.2047 30.619 22.4529 29.7848Z" stroke="#9DA5AE" stroke-width="1.64" stroke-linecap="round" stroke-linejoin="round"/>
</svg>
