<?xml version="1.0" encoding="UTF-8"?>
<svg width="48px" height="48px" viewBox="0 0 48 48" version="1.1" xmlns="http://www.w3.org/2000/svg" xmlns:xlink="http://www.w3.org/1999/xlink">
    <g  stroke="none" stroke-width="1" fill="none" fill-rule="evenodd">
        <path d="M20.2752878,40.6962891 C20.6016388,41.1007643 21.225222,41.5224154 22.1460374,41.9612424 C27.2303635,44.3842466 31.8819387,42.3022204 33.0419408,41.1611842 C35.0066128,39.2286343 36.2817978,35.2029867 36.8674959,29.0842414 C37.9580318,36.6306896 37.2400938,41.4787794 34.7136818,43.6285107 C33.5034657,44.6582871 28.9576001,46.0348499 25.3177264,45.2163328 C23.7704624,44.8683916 22.0896496,43.3617103 20.2752878,40.6962891 Z" fill="#F1F3F5" fill-rule="nonzero"></path>
        <path d="M29.2018579,33.3947368 L32.4518897,31.2326053 C34.0264393,30.1877763 36.1460252,30.5501447 37.2805084,32.058 C37.8638992,32.8330658 37.8093955,33.9121184 37.1533332,34.6267895 L28.9838433,43.5148816 C27.8352296,44.7630395 26.2162697,45.4736842 24.5185823,45.4736842 L21.1272447,45.4736842 C16.6680396,45.4736842 13.0526316,41.8681184 13.0526316,37.4210526 L13.0526316,29.3684211 C13.0526316,28.2571579 13.9569883,27.3552632 15.0712849,27.3552632 C16.1855815,27.3552632 17.0899382,28.2571579 17.0899382,29.3684211 L17.0899382,30.375 L17.0899382,27.3552632 C17.0899382,26.244 17.9942948,25.3421053 19.1085914,25.3421053 C20.2228881,25.3421053 21.1272447,26.244 21.1272447,27.3552632 L21.1272447,30.375 L21.1272447,25.3421053 C21.1272447,24.2308421 22.0316014,23.3289474 23.145898,23.3289474 C24.2601946,23.3289474 25.1645513,24.2308421 25.1645513,25.3421053 L25.1645513,30.375 L25.1645513,19.3026316 C25.1645513,18.1913684 26.068908,17.2894737 27.1832046,17.2894737 C28.2975012,17.2894737 29.2018579,18.1913684 29.2018579,19.3026316 L29.2018579,33.3947368" stroke="#A4AFB7" stroke-width="1.64210526" stroke-linecap="round" stroke-linejoin="round" transform="translate(25.368421, 31.381579) scale(-1, 1) translate(-25.368421, -31.381579) "></path>
        <path d="M18.0631579,18.8842105 C18.0631579,15.9190526 20.5135439,13.5157895 23.5368421,13.5157895 C26.5601404,13.5157895 29.0105263,15.9190526 29.0105263,18.8842105" stroke="#71D7F7" stroke-width="1.64210526" stroke-linecap="round" stroke-linejoin="round" transform="translate(23.536842, 16.200000) scale(-1, 1) translate(-23.536842, -16.200000) "></path>
        <path d="M21.1578947,2.52631579 L21.1578947,6.55263158" stroke="#A4AFB7" stroke-width="1.64210526" stroke-linecap="round" stroke-linejoin="round" transform="translate(22.526316, 4.539474) scale(-1, 1) translate(-22.526316, -4.539474) "></path>
        <path d="M7.57894737,18.6315789 L11.6842105,18.6315789" stroke="#A4AFB7" stroke-width="1.64210526" stroke-linecap="round" stroke-linejoin="round" transform="translate(9.631579, 19.973684) scale(-1, 1) translate(-9.631579, -19.973684) "></path>
        <path d="M40.4210526,18.6315789 L36.3157895,18.6315789" stroke="#A4AFB7" stroke-width="1.64210526" stroke-linecap="round" stroke-linejoin="round" transform="translate(38.368421, 19.973684) scale(-1, 1) translate(-38.368421, -19.973684) "></path>
        <path d="M11.6842105,10.5789474 L14.4210526,6.55263158" stroke="#A4AFB7" stroke-width="1.64210526" stroke-linecap="round" stroke-linejoin="round" transform="translate(13.052632, 8.565789) scale(-1, 1) translate(-13.052632, -8.565789) "></path>
        <path d="M36.3157895,10.5789474 L33.5789474,6.55263158" stroke="#A4AFB7" stroke-width="1.64210526" stroke-linecap="round" stroke-linejoin="round" transform="translate(34.947368, 8.565789) scale(-1, 1) translate(-34.947368, -8.565789) "></path>
    </g>
</svg>