<?xml version="1.0" encoding="UTF-8"?>
<svg width="48px" height="48px" viewBox="0 0 48 48" version="1.1" xmlns="http://www.w3.org/2000/svg" xmlns:xlink="http://www.w3.org/1999/xlink">
    <g stroke="none" stroke-width="1" fill="none" fill-rule="evenodd">
        <path d="M31.6255378,12.1221401 L31.6341569,18.93599 C31.6350386,19.6330181 31.071146,20.1990205 30.3741195,20.2007419 L19.4952319,20.2276087 C19.0068974,20.2288147 18.6100464,19.833919 18.6088404,19.3455845 C18.6080727,19.0347203 18.770606,18.7462889 19.0369148,18.5859244 L30.6681498,11.5818844 C30.966966,11.4019447 31.3550743,11.4983132 31.5350139,11.7971294 C31.5941018,11.8952534 31.6253929,12.0075989 31.6255378,12.1221401 Z" fill="#F1F3F5"></path>
        <path d="M41.7191752,32.3361377 L41.7277943,39.1499877 C41.728676,39.8470158 41.1647835,40.4130181 40.4677569,40.4147395 L29.5888693,40.4416063 C29.1005348,40.4428123 28.7036838,40.0479166 28.7024778,39.5595821 C28.7017101,39.2487179 28.8642435,38.9602865 29.1305522,38.799922 L40.7617872,31.795882 C41.0606034,31.6159423 41.4487117,31.7123108 41.6286514,32.011127 C41.6877392,32.109251 41.7190304,32.2215966 41.7191752,32.3361377 Z" fill="#F1F3F5"></path>
        <path d="M21.5086489,32.3361377 L21.517268,39.1499877 C21.5181497,39.8470158 20.9542571,40.4130181 20.2572306,40.4147395 L9.378343,40.4416063 C8.8900085,40.4428123 8.49315752,40.0479166 8.49195151,39.5595821 C8.49118379,39.2487179 8.65371715,38.9602865 8.9200259,38.799922 L20.5512609,31.795882 C20.8500771,31.6159423 21.2381854,31.7123108 21.4181251,32.011127 C21.4772129,32.109251 21.508504,32.2215966 21.5086489,32.3361377 Z" fill="#F1F3F5"></path>
        <path d="M18.9473684,11.2421053 L30.3157895,11.2421053" stroke="#71D7F7" stroke-width="1.64210526"></path>
        <rect stroke="#A4AFB7" stroke-width="1.64210526" x="18.5052632" y="9.66315789" width="12.2526316" height="9.72631579" rx="1.26315789"></rect>
        <path d="M8.84210526,31.4526316 L20.2105263,31.4526316" stroke="#71D7F7" stroke-width="1.64210526"></path>
        <rect stroke="#A4AFB7" stroke-width="1.64210526" x="8.4" y="29.8736842" width="12.2526316" height="9.72631579" rx="1.26315789"></rect>
        <path d="M29.0526316,31.4526316 L40.4210526,31.4526316" stroke="#71D7F7" stroke-width="1.64210526"></path>
        <rect stroke="#A4AFB7" stroke-width="1.64210526" x="28.6105263" y="29.8736842" width="12.2526316" height="9.72631579" rx="1.26315789"></rect>
        <path d="M14.5263158,30.3157895 L14.5263158,25.8947368 C14.5263158,25.197114 15.0918508,24.6315789 15.7894737,24.6315789 L33.4736842,24.6315789 C34.1713071,24.6315789 34.7368421,25.197114 34.7368421,25.8947368 L34.7368421,30.3157895" stroke="#A4AFB7" stroke-width="1.64210526"></path>
        <path d="M24.6315789,18.9473684 L24.6315789,24" stroke="#A4AFB7" stroke-width="1.64210526"></path>
    </g>
</svg>