<svg width="48" height="48" viewBox="0 0 48 48" fill="none" xmlns="http://www.w3.org/2000/svg">
<path d="M18.9473 11.2421H30.3157" stroke="#E879F9" stroke-width="1.64211"/>
<mask id="path-2-inside-1_1909_232654" fill="white">
<rect x="17.6836" y="8.8421" width="13.8947" height="11.3684" rx="1.26316"/>
</mask>
<rect x="17.6836" y="8.8421" width="13.8947" height="11.3684" rx="1.26316" stroke="#9DA5AE" stroke-width="3.28421" mask="url(#path-2-inside-1_1909_232654)"/>
<path d="M8.8418 31.4526H20.2102" stroke="#E879F9" stroke-width="1.64211"/>
<mask id="path-4-inside-2_1909_232654" fill="white">
<rect x="7.57812" y="29.0526" width="13.8947" height="11.3684" rx="1.26316"/>
</mask>
<rect x="7.57812" y="29.0526" width="13.8947" height="11.3684" rx="1.26316" stroke="#9DA5AE" stroke-width="3.28421" mask="url(#path-4-inside-2_1909_232654)"/>
<path d="M29.0527 31.4526H40.4212" stroke="#E879F9" stroke-width="1.64211"/>
<mask id="path-6-inside-3_1909_232654" fill="white">
<rect x="27.7891" y="29.0526" width="13.8947" height="11.3684" rx="1.26316"/>
</mask>
<rect x="27.7891" y="29.0526" width="13.8947" height="11.3684" rx="1.26316" stroke="#9DA5AE" stroke-width="3.28421" mask="url(#path-6-inside-3_1909_232654)"/>
<path d="M14.5254 30.3158V25.8948C14.5254 25.1971 15.0909 24.6316 15.7885 24.6316H33.4728C34.1704 24.6316 34.7359 25.1971 34.7359 25.8947V30.3158" stroke="#9DA5AE" stroke-width="1.64211"/>
<path d="M24.6316 18.9474V24" stroke="#9DA5AE" stroke-width="1.64211"/>
</svg>
