<?xml version="1.0" encoding="UTF-8"?>
<svg width="48px" height="48px" viewBox="0 0 48 48" version="1.1" xmlns="http://www.w3.org/2000/svg" xmlns:xlink="http://www.w3.org/1999/xlink">
    <g stroke="none" stroke-width="1" fill="none" fill-rule="evenodd">
        <g transform="translate(12.631579, 16.421053)">
            <path d="M7.64370888,24.2752364 C7.97005988,24.6797116 8.59364306,25.1013627 9.51445843,25.5401897 C14.5987846,27.9631939 19.2503598,25.8811678 20.4103618,24.7401316 C22.3750338,22.8075817 23.6502188,18.7819341 24.2359169,12.6631887 C25.3264528,20.209637 24.6085148,25.0577268 22.0821029,27.2074581 C20.8718867,28.2372345 16.3260212,29.6137973 12.6861474,28.7952801 C11.1388835,28.4473389 9.45807064,26.9406577 7.64370888,24.2752364 Z" fill="#F1F3F5"></path>
            <path d="M16.570279,16.9736842 L19.8203107,14.8115526 C21.3948603,13.7667237 23.5144463,14.1290921 24.6489294,15.6369474 C25.2323202,16.4120132 25.1778166,17.4910658 24.5217543,18.2057368 L16.3522644,27.0938289 C15.2036507,28.3419868 13.5846907,29.0526316 11.8870033,29.0526316 L8.49566579,29.0526316 C4.03646067,29.0526316 0.421052632,25.4470658 0.421052632,21 L0.421052632,12.9473684 C0.421052632,11.8361053 1.32540931,10.9342105 2.43970592,10.9342105 C3.55400254,10.9342105 4.45835921,11.8361053 4.45835921,12.9473684 L4.45835921,13.9539474 L4.45835921,10.9342105 C4.45835921,9.82294737 5.36271589,8.92105263 6.4770125,8.92105263 C7.59130912,8.92105263 8.49566579,9.82294737 8.49566579,10.9342105 L8.49566579,13.9539474 L8.49566579,8.92105263 C8.49566579,7.80978947 9.40002247,6.90789474 10.5143191,6.90789474 C11.6286157,6.90789474 12.5329724,7.80978947 12.5329724,8.92105263 L12.5329724,13.9539474 L12.5329724,2.88157895 C12.5329724,1.77031579 13.437329,0.868421053 14.5516257,0.868421053 C15.6659223,0.868421053 16.570279,1.77031579 16.570279,2.88157895 L16.570279,16.9736842" stroke="#A4AFB7" stroke-width="1.64210526" stroke-linecap="round" stroke-linejoin="round" transform="translate(12.736842, 14.960526) scale(-1, 1) translate(-12.736842, -14.960526) "></path>
        </g>
        <path d="M18.0631579,18.8842105 C18.0631579,15.9190526 20.5135439,13.5157895 23.5368421,13.5157895 C26.5601404,13.5157895 29.0105263,15.9190526 29.0105263,18.8842105" stroke="#71D7F7" stroke-width="1.64210526" stroke-linecap="round" stroke-linejoin="round" transform="translate(23.536842, 16.200000) scale(-1, 1) translate(-23.536842, -16.200000) "></path>
        <path d="M21.1578947,2.52631579 L21.1578947,6.55263158" stroke="#A4AFB7" stroke-width="1.64210526" stroke-linecap="round" stroke-linejoin="round" transform="translate(22.526316, 4.539474) scale(-1, 1) translate(-22.526316, -4.539474) "></path>
        <path d="M7.57894737,18.6315789 L11.6842105,18.6315789" stroke="#A4AFB7" stroke-width="1.64210526" stroke-linecap="round" stroke-linejoin="round" transform="translate(9.631579, 19.973684) scale(-1, 1) translate(-9.631579, -19.973684) "></path>
        <path d="M40.4210526,18.6315789 L36.3157895,18.6315789" stroke="#A4AFB7" stroke-width="1.64210526" stroke-linecap="round" stroke-linejoin="round" transform="translate(38.368421, 19.973684) scale(-1, 1) translate(-38.368421, -19.973684) "></path>
        <path d="M11.6842105,10.5789474 L14.4210526,6.55263158" stroke="#A4AFB7" stroke-width="1.64210526" stroke-linecap="round" stroke-linejoin="round" transform="translate(13.052632, 8.565789) scale(-1, 1) translate(-13.052632, -8.565789) "></path>
        <path d="M36.3157895,10.5789474 L33.5789474,6.55263158" stroke="#A4AFB7" stroke-width="1.64210526" stroke-linecap="round" stroke-linejoin="round" transform="translate(34.947368, 8.565789) scale(-1, 1) translate(-34.947368, -8.565789) "></path>
    </g>
</svg>