<svg width="48" height="48" viewBox="0 0 48 48" fill="none" xmlns="http://www.w3.org/2000/svg">
<path d="M21.5344 33.3948L18.2843 31.2326C16.7098 30.1878 14.5902 30.5502 13.4557 32.058C12.8723 32.8331 12.9268 33.9121 13.5829 34.6268L21.7524 43.5149C22.901 44.7631 24.52 45.4737 26.2176 45.4737H29.609C34.0682 45.4737 37.6836 41.8681 37.6836 37.4211V29.3684C37.6836 28.2572 36.7792 27.3553 35.6649 27.3553C34.5506 27.3553 33.6463 28.2572 33.6463 29.3684V30.375V27.3553C33.6463 26.244 32.7419 25.3421 31.6276 25.3421C30.5133 25.3421 29.609 26.244 29.609 27.3553V30.375V25.3421C29.609 24.2309 28.7046 23.329 27.5903 23.329C26.476 23.329 25.5717 24.2309 25.5717 25.3421V30.375V19.3026C25.5717 18.1914 24.6673 17.2895 23.553 17.2895C22.4387 17.2895 21.5344 18.1914 21.5344 19.3026V33.3948" stroke="#9DA5AE" stroke-width="1.64211" stroke-linecap="round" stroke-linejoin="round"/>
<path d="M29.0098 18.8842C29.0098 15.919 26.5594 13.5158 23.5361 13.5158C20.5128 13.5158 18.0624 15.919 18.0624 18.8842" stroke="#E879F9" stroke-width="1.64211" stroke-linecap="round" stroke-linejoin="round"/>
<path d="M23.8945 2.52631V6.55262" stroke="#9DA5AE" stroke-width="1.64211" stroke-linecap="round" stroke-linejoin="round"/>
<path d="M11.6836 18.6316H7.57833" stroke="#9DA5AE" stroke-width="1.64211" stroke-linecap="round" stroke-linejoin="round"/>
<path d="M36.3166 18.6316H40.4219" stroke="#9DA5AE" stroke-width="1.64211" stroke-linecap="round" stroke-linejoin="round"/>
<path d="M14.4219 10.579L11.685 6.55264" stroke="#9DA5AE" stroke-width="1.64211" stroke-linecap="round" stroke-linejoin="round"/>
<path d="M33.5796 10.579L36.3164 6.55264" stroke="#9DA5AE" stroke-width="1.64211" stroke-linecap="round" stroke-linejoin="round"/>
</svg>
