<svg width="48" height="48" viewBox="0 0 48 48" fill="none" xmlns="http://www.w3.org/2000/svg">
<path fill-rule="evenodd" clip-rule="evenodd" d="M42.1576 37.6651C42.1576 39.4415 40.7444 40.8804 38.9997 40.8804H8.99969C7.25495 40.8804 5.8418 39.4415 5.8418 37.6651V10.3349C5.8418 8.55847 7.25495 7.11961 8.99969 7.11961H38.9997C40.7444 7.11961 42.1576 8.55847 42.1576 10.3349V37.6651V37.6651Z" stroke="#9DA5AE" stroke-width="1.64211" stroke-linecap="round" stroke-linejoin="round"/>
<path d="M5.8418 13.5502H42.1576" stroke="#9DA5AE" stroke-width="1.64211" stroke-linecap="round" stroke-linejoin="round"/>
<path fill-rule="evenodd" clip-rule="evenodd" d="M9.78988 10.3349C9.78988 10.7786 9.4362 11.1388 9.00041 11.1388C8.56462 11.1388 8.21094 10.7786 8.21094 10.3349C8.21094 9.89121 8.56462 9.5311 9.00041 9.5311C9.4362 9.5311 9.78988 9.89121 9.78988 10.3349" fill="#9DA5AE"/>
<path fill-rule="evenodd" clip-rule="evenodd" d="M12.9461 10.3349C12.9461 10.7786 12.5925 11.1388 12.1567 11.1388C11.7209 11.1388 11.3672 10.7786 11.3672 10.3349C11.3672 9.89121 11.7209 9.5311 12.1567 9.5311C12.5925 9.5311 12.9461 9.89121 12.9461 10.3349" fill="#9DA5AE"/>
<path fill-rule="evenodd" clip-rule="evenodd" d="M16.1043 10.3349C16.1043 10.7786 15.7507 11.1388 15.3149 11.1388C14.8791 11.1388 14.5254 10.7786 14.5254 10.3349C14.5254 9.89121 14.8791 9.5311 15.3149 9.5311C15.7507 9.5311 16.1043 9.89121 16.1043 10.3349" fill="#9DA5AE"/>
<path d="M9.09503 19.1377L11.7746 16.4582" stroke="#E879F9" stroke-width="1.64211" stroke-linecap="round" stroke-linejoin="round"/>
<path d="M9.09442 16.4582L11.774 19.1377" stroke="#E879F9" stroke-width="1.64211" stroke-linecap="round" stroke-linejoin="round"/>
<path d="M28.7363 35.7895L16.1047 23.1579" stroke="#9DA5AE" stroke-width="1.64211" stroke-linecap="round" stroke-linejoin="round"/>
<path d="M22.4219 23.1579H16.1061V29.4737" stroke="#9DA5AE" stroke-width="1.64211" stroke-linecap="round" stroke-linejoin="round"/>
</svg>
