<?xml version="1.0" encoding="utf-8"?>
<!-- Generator: Adobe Illustrator 23.0.1, SVG Export Plug-In . SVG Version: 6.00 Build 0)  -->
<svg version="1.1" id="Layer_1" xmlns="http://www.w3.org/2000/svg" xmlns:xlink="http://www.w3.org/1999/xlink" x="0px" y="0px"
	 viewBox="0 0 48 48" style="enable-background:new 0 0 48 48;" xml:space="preserve">
<style type="text/css">
	.st0{fill:#F1F3F5;}
	.st1{fill:none;stroke:#A4AFB7;stroke-width:1.6421;stroke-linecap:round;stroke-linejoin:round;}
	.st2{fill-rule:evenodd;clip-rule:evenodd;fill:#A4AFB7;}
	.st3{fill:none;stroke:#71D7F7;stroke-width:1.6421;stroke-linecap:round;stroke-linejoin:round;}
</style>
<g id="On-Page-Exit-Intent-Copy">
	<g id="Group-2" transform="translate(5.000000, 7.000000)">
		<polygon id="Rectangle-Copy-7" class="st0" points="36.5,6.9 36.5,33 10.2,33 		"/>
		<path id="Stroke-14" class="st1" d="M37.2,30.7c0,1.8-1.4,3.2-3.2,3.2H4c-1.7,0-3.2-1.4-3.2-3.2V3.3c0-1.8,1.4-3.2,3.2-3.2h30
			c1.7,0,3.2,1.4,3.2,3.2V30.7L37.2,30.7z"/>
		<path id="Stroke-16" class="st1" d="M0.8,6.6h36.3"/>
		<path id="Fill-18" class="st2" d="M4.8,3.3c0,0.4-0.4,0.8-0.8,0.8S3.2,3.8,3.2,3.3S3.6,2.5,4,2.5S4.8,2.9,4.8,3.3"/>
		<path id="Fill-20" class="st2" d="M7.9,3.3c0,0.4-0.4,0.8-0.8,0.8S6.4,3.8,6.4,3.3s0.4-0.8,0.8-0.8S7.9,2.9,7.9,3.3"/>
		<path id="Fill-22" class="st2" d="M11.1,3.3c0,0.4-0.4,0.8-0.8,0.8c-0.4,0-0.8-0.4-0.8-0.8s0.4-0.8,0.8-0.8
			C10.8,2.5,11.1,2.9,11.1,3.3"/>
		<g id="Group" transform="translate(3.000000, 9.000000)">
			<path id="Stroke-9-Copy-2" class="st3" d="M1.1,3.1l2.7-2.7"/>
			<path id="Stroke-9-Copy" class="st3" d="M1.1,0.5l2.7,2.7"/>
		</g>
		<g id="Group-79" transform="translate(11.000000, 16.000000)">
			<path id="Stroke-822" class="st1" d="M12.7,12.8L0.1,0.2"/>
			<polyline id="Stroke-823" class="st1" points="6.4,0.2 0.1,0.2 0.1,6.5 			"/>
		</g>
	</g>
</g>
</svg>
