<svg width="48" height="48" viewBox="0 0 48 48" fill="none" xmlns="http://www.w3.org/2000/svg">
<path d="M7.85352 20.0526V12.4211C7.85352 11.5785 8.54243 10.8947 9.39127 10.8947H17.0801C17.9289 10.8947 18.6178 11.5785 18.6178 12.4211V18.4622" stroke="#9DA5AE" stroke-width="1.64211" stroke-linecap="round" stroke-linejoin="round"/>
<path d="M20.1562 15.4737V17" stroke="#9DA5AE" stroke-width="1.64211" stroke-linecap="round" stroke-linejoin="round"/>
<path d="M6.31641 7.84211H21.5448C23.0657 6.85611 24.9125 6.3158 26.867 6.3158H36.3027C37.5775 6.3158 38.6093 7.33995 38.6093 8.60527C38.6093 9.87059 37.5775 10.8947 36.3027 10.8947H37.8404C39.1152 10.8947 40.1471 11.9189 40.1471 13.1842C40.1471 14.4495 39.1152 15.4737 37.8404 15.4737H37.0716H39.3782C40.653 15.4737 41.6848 16.4978 41.6848 17.7632C41.6848 19.0285 40.653 20.0526 39.3782 20.0526H35.5338H37.8404C39.1152 20.0526 40.1471 21.0768 40.1471 22.3421C40.1471 23.6074 39.1152 24.6316 37.8404 24.6316H31.9354H35.5338L33.8992 26.2541C33.5009 26.6494 33.0057 27.0523 32.4583 27.4278" stroke="#9DA5AE" stroke-width="1.64211" stroke-linecap="round" stroke-linejoin="round"/>
<path d="M9.39062 10.8947V7.8421" stroke="#9DA5AE" stroke-width="1.64211" stroke-linecap="round" stroke-linejoin="round"/>
<path d="M17.0801 10.8947V7.8421" stroke="#9DA5AE" stroke-width="1.64211" stroke-linecap="round" stroke-linejoin="round"/>
<path d="M27.8451 45.4209V44.0427C28.8385 42.5332 29.3828 40.7001 29.3828 38.7601V30.9209C29.3828 29.6556 28.351 28.6315 27.0762 28.6315C25.8014 28.6315 24.7696 29.6556 24.7696 30.9209V29.3946C24.7696 28.1293 23.7377 27.1052 22.4629 27.1052C21.1881 27.1052 20.1563 28.1293 20.1563 29.3946V27.8683C20.1563 26.603 19.1245 25.5788 17.8497 25.5788C16.5749 25.5788 15.543 26.603 15.543 27.8683V20.2367C15.543 18.9714 14.5112 17.9473 13.2364 17.9473C11.9616 17.9473 10.9298 18.9714 10.9298 20.2367V30.1578L9.29512 31.7787C7.84809 33.2165 6.32878 35.8815 6.31648 37.7894C6.30418 39.7278 7.82348 42.434 9.29512 43.8946C9.76875 44.3357 10.1486 44.8562 10.4223 45.4255" stroke="#9DA5AE" stroke-width="1.64211" stroke-linecap="round" stroke-linejoin="round"/>
<path d="M15.6133 16.2367C15.6133 14.9714 14.5814 13.9473 13.3066 13.9473C12.0318 13.9473 11 14.9714 11 16.2367" stroke="#E879F9" stroke-width="1.64211" stroke-linecap="round" stroke-linejoin="round"/>
</svg>
