<?xml version="1.0" encoding="UTF-8"?>
<svg width="48px" height="48px" viewBox="0 0 48 48" version="1.1" xmlns="http://www.w3.org/2000/svg" xmlns:xlink="http://www.w3.org/1999/xlink">
    <g stroke="none" stroke-width="1" fill="none" fill-rule="evenodd">
        <rect fill="#F1F3F5" x="10.1052632" y="7.57894737" width="6.66517357" height="2.49944009"></rect>
        <path d="M25.3186678,42.3006785 C24.8010525,41.3110006 24.7121853,40.4483361 25.0520662,39.712685 C25.6807782,38.3518769 26.5975305,36.8659868 27.1774381,35.0601576 C27.8719631,32.8974101 28.3464828,30.3724405 28.6009971,27.4852488 C28.9074977,30.1189962 29.0145127,32.1891523 28.9220424,33.6957171 C28.741071,36.6441768 28.7205863,38.9432812 28.2358655,40.098787 C27.9154382,40.8626405 27.7952182,41.5755825 27.8752056,42.2376131 L25.3186678,42.3006785 Z" fill="#F1F3F5"></path>
        <path d="M24.8251433,18.1361878 C24.8605358,17.2525967 24.8728664,16.3013138 24.8621351,15.2823391 C24.8485006,13.9877009 25.0038305,13.2610302 25.2854488,12.3004997 C25.6335695,11.1131457 26.4007105,10.3412569 26.7212843,9.34299163 C27.4158093,7.18024415 28.0972837,3.76399013 28.7657075,-0.905770441 C29.2830044,4.55016489 29.4954177,8.03141495 29.4029473,9.53797974 C29.328075,10.7578289 28.2053933,11.6228079 27.822112,13.5156409 C27.6658918,14.2871335 27.6717905,15.800602 27.8398082,18.0560463 L24.8251433,18.1361878 Z" fill="#F1F3F5" transform="translate(27.124563, 8.615209) scale(1, -1) rotate(-270.000000) translate(-27.124563, -8.615209) "></path>
        <path d="M8.05125367,11.3684211 L18.1916632,11.3815275 L18.3145559,19.1666324 L14.7274385,19.8003701 C15.6628796,15.7037943 14.9509532,13.6796438 12.5916591,13.7279185 C10.232365,13.7761933 9.59572096,15.9341768 10.6817269,20.201869 L8.12618215,20.775185 L8.05125367,11.3684211 Z" fill="#71D7F7"></path>
        <path d="M7.85362112,20.0526316 L7.85362112,12.4210526 C7.85362112,11.5785263 8.54253645,10.8947368 9.39137856,10.8947368 L17.0801657,10.8947368 C17.9290078,10.8947368 18.6179232,11.5785263 18.6179232,12.4210526 L18.6179232,18.4622105" stroke="#A4AFB7" stroke-width="1.64210526" stroke-linecap="round" stroke-linejoin="round"></path>
        <path d="M20.1556806,15.4736842 L20.1556806,17" stroke="#A4AFB7" stroke-width="1.64210526" stroke-linecap="round" stroke-linejoin="round"></path>
        <path d="M6.31586369,7.84210526 L21.5442756,7.84210526 C23.0651177,6.85610526 24.9119644,6.31578947 26.8664541,6.31578947 L36.3021337,6.31578947 C37.5769346,6.31578947 38.6087699,7.33994737 38.6087699,8.60526316 C38.6087699,9.87057895 37.5769346,10.8947368 36.3021337,10.8947368 L37.8398911,10.8947368 C39.1146921,10.8947368 40.1465273,11.9188947 40.1465273,13.1842105 C40.1465273,14.4495263 39.1146921,15.4736842 37.8398911,15.4736842 L37.0710124,15.4736842 L39.3776486,15.4736842 C40.6524495,15.4736842 41.6842847,16.4978421 41.6842847,17.7631579 C41.6842847,19.0284737 40.6524495,20.0526316 39.3776486,20.0526316 L35.533255,20.0526316 L37.8398911,20.0526316 C39.1146921,20.0526316 40.1465273,21.0767895 40.1465273,22.3421053 C40.1465273,23.6074211 39.1146921,24.6315789 37.8398911,24.6315789 L31.9349026,24.6315789 L35.533255,24.6315789 L33.8986188,26.2540526 C33.5003397,26.6493684 33.0051818,27.0523158 32.4577401,27.4277895" stroke="#A4AFB7" stroke-width="1.64210526" stroke-linecap="round" stroke-linejoin="round"></path>
        <path d="M9.39137856,10.8947368 L9.39137856,7.84210526" stroke="#A4AFB7" stroke-width="1.64210526" stroke-linecap="round" stroke-linejoin="round"></path>
        <path d="M17.0801657,10.8947368 L17.0801657,7.84210526" stroke="#A4AFB7" stroke-width="1.64210526" stroke-linecap="round" stroke-linejoin="round"></path>
        <path d="M27.8444678,41.4210526 L27.8444678,40.0427895 C28.8378591,38.5332632 29.3822252,36.7001579 29.3822252,34.7602105 L29.3822252,26.9210526 C29.3822252,25.6557368 28.35039,24.6315789 27.0755891,24.6315789 C25.8007882,24.6315789 24.7689529,25.6557368 24.7689529,26.9210526 L24.7689529,25.3947368 C24.7689529,24.1294211 23.7371177,23.1052632 22.4623168,23.1052632 C21.1875159,23.1052632 20.1556806,24.1294211 20.1556806,25.3947368 L20.1556806,26.1578947 L20.1556806,23.8684211 C20.1556806,22.6031053 19.1238454,21.5789474 17.8490445,21.5789474 C16.5742435,21.5789474 15.5424083,22.6031053 15.5424083,23.8684211 L15.5424083,26.1578947 L15.5424083,16.2368421 C15.5424083,14.9715263 14.5105731,13.9473684 13.2357722,13.9473684 C11.9609712,13.9473684 10.929136,14.9715263 10.929136,16.2368421 L10.929136,32.2631579 L10.929136,26.1578947 L9.29449984,27.7788421 C7.84747009,29.2166316 6.32816574,31.8815789 6.31586369,33.7894737 C6.30356163,35.7278947 7.82286597,38.4340526 9.29449984,39.8947368 C9.76812913,40.3358421 10.1479552,40.8563158 10.421676,41.4256316" stroke="#A4AFB7" stroke-width="1.64210526" stroke-linecap="round" stroke-linejoin="round"></path>
        <path d="M27.8444678,41.4210526 L27.8444678,40.0427895 C28.8378591,38.5332632 29.3822252,36.7001579 29.3822252,34.7602105 L29.3822252,26.9210526 C29.3822252,25.6557368 28.35039,24.6315789 27.0755891,24.6315789 C25.8007882,24.6315789 24.7689529,25.6557368 24.7689529,26.9210526 L24.7689529,25.3947368 C24.7689529,24.1294211 23.7371177,23.1052632 22.4623168,23.1052632 C21.1875159,23.1052632 20.1556806,24.1294211 20.1556806,25.3947368 L20.1556806,23.8684211 C20.1556806,22.6031053 19.1238454,21.5789474 17.8490445,21.5789474 C16.5742435,21.5789474 15.5424083,22.6031053 15.5424083,23.8684211 L15.5424083,16.2368421 C15.5424083,14.9715263 14.5105731,13.9473684 13.2357722,13.9473684 C11.9609712,13.9473684 10.929136,14.9715263 10.929136,16.2368421 L10.929136,26.1578947 L9.29449984,27.7788421 C7.84747009,29.2166316 6.32816574,31.8815789 6.31586369,33.7894737 C6.30356163,35.7278947 7.82286597,38.4340526 9.29449984,39.8947368 C9.76812913,40.3358421 10.1479552,40.8563158 10.421676,41.4256316" stroke="#A4AFB7" stroke-width="1.64210526" stroke-linecap="round" stroke-linejoin="round"></path>
    </g>
</svg>