<svg width="48" height="48" viewBox="0 0 48 48" fill="none" xmlns="http://www.w3.org/2000/svg">
<path fill-rule="evenodd" clip-rule="evenodd" d="M24.1493 19.5016L27.2962 16.6407C27.3478 16.5938 27.3516 16.5139 27.3047 16.4623C27.2808 16.4359 27.2468 16.4209 27.2112 16.4209H20.9173C20.8476 16.4209 20.791 16.4775 20.791 16.5472C20.791 16.5828 20.806 16.6168 20.8324 16.6407L23.9793 19.5016C24.0275 19.5454 24.1011 19.5454 24.1493 19.5016Z" fill="#E879F9"/>
<path fill-rule="evenodd" clip-rule="evenodd" d="M23.0851 29.6384L23.9644 28.8597C24.0121 28.8175 24.0839 28.8174 24.1317 28.8596L25.014 29.6383C25.0663 29.6844 25.0713 29.7642 25.0252 29.8166C25.0219 29.8203 25.0184 29.8238 25.0146 29.8272L24.1323 30.6157C24.0843 30.6586 24.0117 30.6586 23.9638 30.6156L23.0845 29.827C23.0326 29.7804 23.0283 29.7006 23.0748 29.6486C23.0781 29.645 23.0815 29.6416 23.0851 29.6384Z" fill="#E879F9"/>
<path fill-rule="evenodd" clip-rule="evenodd" d="M23.0949 32.965L23.9742 32.1863C24.0219 32.1441 24.0937 32.144 24.1415 32.1862L25.0238 32.9649C25.0761 33.011 25.0811 33.0908 25.0349 33.1432C25.0316 33.1469 25.0281 33.1504 25.0244 33.1538L24.1421 33.9423C24.0941 33.9852 24.0215 33.9852 23.9736 33.9422L23.0943 33.1536C23.0424 33.107 23.038 33.0272 23.0846 32.9752C23.0878 32.9716 23.0913 32.9682 23.0949 32.965Z" fill="#E879F9"/>
<path fill-rule="evenodd" clip-rule="evenodd" d="M24.7277 31.1542L25.607 30.3756C25.6547 30.3333 25.7265 30.3332 25.7743 30.3754L26.6566 31.1541C26.7089 31.2002 26.7139 31.2801 26.6677 31.3324C26.6644 31.3361 26.6609 31.3396 26.6572 31.343L25.7749 32.1315C25.7269 32.1744 25.6543 32.1744 25.6064 32.1314L24.7271 31.3428C24.6752 31.2962 24.6708 31.2164 24.7174 31.1644C24.7206 31.1608 24.7241 31.1574 24.7277 31.1542Z" fill="#E879F9"/>
<path d="M33.1584 7.13672H14.8426C14.0752 7.13672 13.4531 7.75881 13.4531 8.52619C13.4531 9.29358 14.0752 9.91567 14.8426 9.91567H33.1584C33.9258 9.91567 34.5479 9.29358 34.5479 8.52619C34.5479 7.75881 33.9258 7.13672 33.1584 7.13672Z" stroke="#9DA5AE" stroke-width="1.64211"/>
<path d="M33.1584 37.4525H14.8426C14.0752 37.4525 13.4531 38.0746 13.4531 38.842C13.4531 39.6094 14.0752 40.2315 14.8426 40.2315H33.1584C33.9258 40.2315 34.5479 39.6094 34.5479 38.842C34.5479 38.0746 33.9258 37.4525 33.1584 37.4525Z" stroke="#9DA5AE" stroke-width="1.64211"/>
<path fill-rule="evenodd" clip-rule="evenodd" d="M24.0011 23.5632C25.2398 22.4646 26.7965 21.0185 28.6714 19.2249C30.3555 17.6138 33.7414 14.7642 33.7414 12.6739C33.7414 11.7876 33.2756 10.8685 32.3439 9.91669L24.0011 9.92054L15.4457 9.92956C14.5366 10.937 14.082 11.8348 14.082 12.6229C14.082 15.1058 16.5436 17.0455 18.6686 18.8054C20.4363 20.2694 22.2138 21.8553 24.0011 23.5632Z" stroke="#9DA5AE" stroke-width="1.64211"/>
<path fill-rule="evenodd" clip-rule="evenodd" d="M24.0011 23.8115C25.2398 24.91 26.7965 26.3561 28.6714 28.1497C30.3555 29.7608 33.7414 32.6104 33.7414 34.7007C33.7414 35.5871 33.2756 36.5062 32.3439 37.4579L24.0011 37.4541L15.4457 37.4451C14.5366 36.4376 14.082 35.5398 14.082 34.7518C14.082 32.2688 16.5436 30.3291 18.6686 28.5692C20.4363 27.1053 22.2138 25.5193 24.0011 23.8115Z" stroke="#9DA5AE" stroke-width="1.64211"/>
</svg>
