<?xml version="1.0" encoding="UTF-8"?>
<svg width="48px" height="48px" viewBox="0 0 48 48" version="1.1" xmlns="http://www.w3.org/2000/svg" xmlns:xlink="http://www.w3.org/1999/xlink">
    <g stroke="none" stroke-width="1" fill="none" fill-rule="evenodd">
        <g transform="translate(12.631579, 6.315789)">
            <path d="M11.5165481,10.1825079 L14.6635031,13.043376 C14.715123,13.0903032 14.7189272,13.1701914 14.672,13.2218113 C14.6480603,13.2481449 14.6141227,13.2631579 14.5785339,13.2631579 L8.28462403,13.2631579 C8.21486174,13.2631579 8.15830824,13.2066044 8.15830824,13.1368421 C8.15830824,13.1012533 8.17332122,13.0673156 8.19965483,13.043376 L11.3466098,10.1825079 C11.3947893,10.1387083 11.4683686,10.1387083 11.5165481,10.1825079 Z" fill="#71D7F7" transform="translate(11.431579, 11.684211) scale(1, -1) translate(-11.431579, -11.684211) "></path>
            <path d="M10.8021641,22.6684287 L11.9744991,22.7395718 C12.0381545,22.7434348 12.0889464,22.7941398 12.0929183,22.8577884 L12.1662104,24.0322737 C12.1705554,24.1019005 12.1176339,24.1618665 12.0480071,24.1662115 C12.0430315,24.166522 12.0380419,24.1665377 12.0330645,24.1662584 L10.8515719,24.0999751 C10.787295,24.096369 10.7360137,24.0449997 10.7325179,23.9807167 L10.6683833,22.8013717 C10.6645951,22.7317123 10.7179943,22.6721713 10.7876536,22.6683831 C10.7924873,22.6681203 10.7973322,22.6681355 10.8021641,22.6684287 Z" fill="#71D7F7" transform="translate(11.417327, 23.417327) rotate(-45.000000) translate(-11.417327, -23.417327) "></path>
            <path d="M9.91795361,25.0684287 L11.0902886,25.1395718 C11.1539439,25.1434348 11.2047359,25.1941398 11.2087078,25.2577884 L11.2819999,26.4322737 C11.2863448,26.5019005 11.2334234,26.5618665 11.1637966,26.5662115 C11.158821,26.566522 11.1538314,26.5665377 11.1488539,26.5662584 L9.96736139,26.4999751 C9.90308452,26.496369 9.85180314,26.4449997 9.84830733,26.3807167 L9.7841728,25.2013717 C9.78038462,25.1317123 9.83378376,25.0721713 9.90344311,25.0683831 C9.90827682,25.0681203 9.91312165,25.0681355 9.91795361,25.0684287 Z" fill="#71D7F7" transform="translate(10.533116, 25.817327) rotate(-45.000000) translate(-10.533116, -25.817327) "></path>
            <path d="M12.4442694,24.1842182 L13.6166044,24.2553613 C13.6802597,24.2592242 13.7310517,24.3099293 13.7350236,24.3735779 L13.8083157,25.5480632 C13.8126606,25.61769 13.7597392,25.677656 13.6901124,25.682001 C13.6851368,25.6823115 13.6801472,25.6823271 13.6751697,25.6820479 L12.4936772,25.6157645 C12.4294003,25.6121585 12.3781189,25.5607891 12.3746231,25.4965062 L12.3104886,24.3171611 C12.3067004,24.2475018 12.3600995,24.1879608 12.4297589,24.1841726 C12.4345926,24.1839098 12.4394374,24.183925 12.4442694,24.1842182 Z" fill="#71D7F7" transform="translate(13.059432, 24.933116) rotate(-45.000000) translate(-13.059432, -24.933116) "></path>
            <rect stroke="#A4AFB7" stroke-width="1.64210526" x="0.821052632" y="0.821052632" width="21.0947368" height="2.77894737" rx="1.38947368"></rect>
            <rect stroke="#A4AFB7" stroke-width="1.64210526" x="0.821052632" y="31.1368421" width="21.0947368" height="2.77894737" rx="1.38947368"></rect>
            <path d="M11.3684211,17.2475329 C12.6070668,16.1489688 14.1638359,14.7028853 16.0387284,12.9092825 C17.7228201,11.298208 21.1087068,8.44856945 21.1087068,6.35826994 C21.1087068,5.47191262 20.6428865,4.55283881 19.7112459,3.60104852 L11.3684211,3.60490337 L2.81303968,3.61392373 C1.90391139,4.62138713 1.44934725,5.51915645 1.44934725,6.3072317 C1.44934725,8.79014416 3.91089805,10.7299086 6.03592722,12.4897975 C7.80360659,13.9537395 9.58110454,15.5396513 11.3684211,17.2475329 Z" stroke="#A4AFB7" stroke-width="1.64210526"></path>
            <path d="M11.3684211,31.1422697 C12.6070668,30.0437056 14.1638359,28.5976221 16.0387284,26.8040193 C17.7228201,25.1929449 21.1087068,22.3433063 21.1087068,20.2530068 C21.1087068,19.3666495 20.6428865,18.4475757 19.7112459,17.4957854 L11.3684211,17.4996402 L2.81303968,17.5086606 C1.90391139,18.516124 1.44934725,19.4138933 1.44934725,20.2019685 C1.44934725,22.684881 3.91089805,24.6246454 6.03592722,26.3845343 C7.80360659,27.8484763 9.58110454,29.4343881 11.3684211,31.1422697 Z" stroke="#A4AFB7" stroke-width="1.64210526" transform="translate(11.279027, 24.319028) scale(1, -1) translate(-11.279027, -24.319028) "></path>
        </g>
    </g>
</svg>