<?xml version="1.0" encoding="UTF-8"?>
<svg width="48px" height="48px" viewBox="0 0 48 48" version="1.1" xmlns="http://www.w3.org/2000/svg" xmlns:xlink="http://www.w3.org/1999/xlink">
    <g stroke="none" stroke-width="1" fill="none" fill-rule="evenodd">
        <polygon fill="#F1F3F5" points="41.5194508 13.8947368 41.5194508 40 15.1578947 40"></polygon>
        <g transform="translate(5.052632, 6.315789)">
            <path d="M37.1052632,31.3492823 C37.1052632,33.1257416 35.6921053,34.5645933 33.9473684,34.5645933 L3.94736842,34.5645933 C2.20263158,34.5645933 0.789473684,33.1257416 0.789473684,31.3492823 L0.789473684,4.01913876 C0.789473684,2.24267943 2.20263158,0.803827751 3.94736842,0.803827751 L33.9473684,0.803827751 C35.6921053,0.803827751 37.1052632,2.24267943 37.1052632,4.01913876 L37.1052632,31.3492823 L37.1052632,31.3492823 Z" stroke="#A4AFB7" stroke-width="1.64210526" stroke-linecap="round" stroke-linejoin="round"></path>
            <path d="M0.789473684,7.23444976 L37.1052632,7.23444976" stroke="#A4AFB7" stroke-width="1.64210526" stroke-linecap="round" stroke-linejoin="round"></path>
            <path d="M4.73684211,4.01913876 C4.73684211,4.46285167 4.38315789,4.82296651 3.94736842,4.82296651 C3.51157895,4.82296651 3.15789474,4.46285167 3.15789474,4.01913876 C3.15789474,3.57542584 3.51157895,3.215311 3.94736842,3.215311 C4.38315789,3.215311 4.73684211,3.57542584 4.73684211,4.01913876" fill="#A4AFB7"></path>
            <path d="M7.89473684,4.01913876 C7.89473684,4.46285167 7.54105263,4.82296651 7.10526316,4.82296651 C6.66947368,4.82296651 6.31578947,4.46285167 6.31578947,4.01913876 C6.31578947,3.57542584 6.66947368,3.215311 7.10526316,3.215311 C7.54105263,3.215311 7.89473684,3.57542584 7.89473684,4.01913876" fill="#A4AFB7"></path>
            <path d="M11.0526316,4.01913876 C11.0526316,4.46285167 10.6989474,4.82296651 10.2631579,4.82296651 C9.82736842,4.82296651 9.47368421,4.46285167 9.47368421,4.01913876 C9.47368421,3.57542584 9.82736842,3.215311 10.2631579,3.215311 C10.6989474,3.215311 11.0526316,3.57542584 11.0526316,4.01913876" fill="#A4AFB7"></path>
            <polyline stroke="#71D7F7" stroke-width="1.64210526" stroke-linecap="round" stroke-linejoin="round" points="11.8421053 15.2727273 16.5789474 20.0956938 11.8421053 24.9186603"></polyline>
            <path d="M19.7368421,23.3110048 L27.6315789,23.3110048" stroke="#71D7F7" stroke-width="1.64210526" stroke-linecap="round" stroke-linejoin="round"></path>
        </g>
    </g>
</svg>