<?xml version="1.0" encoding="UTF-8"?>
<svg width="48px" height="48px" viewBox="0 0 48 48" version="1.1" xmlns="http://www.w3.org/2000/svg" xmlns:xlink="http://www.w3.org/1999/xlink">
    <g stroke="none" stroke-width="1" fill="none" fill-rule="evenodd">
        <path d="M21.5384457,33.1173417 C21.8647967,33.5218169 22.4883799,33.943468 23.4091953,34.382295 C28.4935214,36.8052992 33.1450966,34.723273 34.3050987,33.5822368 C36.2697707,31.649687 37.5449557,27.6240394 38.1306538,21.505294 C39.2211897,29.0517423 38.5032517,33.8998321 35.9768397,36.0495633 C34.7666236,37.0793398 30.220758,38.4559025 26.5808843,37.6373854 C25.0336203,37.2894442 23.3528075,35.782763 21.5384457,33.1173417 Z" fill="#F1F3F5"></path>
        <g transform="translate(8.842105, 3.789474)" stroke-linecap="round" stroke-linejoin="round" stroke-width="1.64210526">
            <g transform="translate(5.052632, 1.263158)">
                <path d="M16.570279,20.7631579 L19.8203107,18.6010263 C21.3948603,17.5561974 23.5144463,17.9185658 24.6489294,19.4264211 C25.2323202,20.2014868 25.1778166,21.2805395 24.5217543,21.9952105 L16.3522644,30.8833026 C15.2036507,32.1314605 13.5846907,32.8421053 11.8870033,32.8421053 L8.49566579,32.8421053 C4.03646067,32.8421053 0.421052632,29.2365395 0.421052632,24.7894737 L0.421052632,16.7368421 C0.421052632,15.6255789 1.32540931,14.7236842 2.43970592,14.7236842 C3.55400254,14.7236842 4.45835921,15.6255789 4.45835921,16.7368421 L4.45835921,17.7434211 L4.45835921,14.7236842 C4.45835921,13.6124211 5.36271589,12.7105263 6.4770125,12.7105263 C7.59130912,12.7105263 8.49566579,13.6124211 8.49566579,14.7236842 L8.49566579,17.7434211 L8.49566579,12.7105263 C8.49566579,11.5992632 9.40002247,10.6973684 10.5143191,10.6973684 C11.6286157,10.6973684 12.5329724,11.5992632 12.5329724,12.7105263 L12.5329724,17.7434211 L12.5329724,6.67105263 C12.5329724,5.55978947 13.437329,4.65789474 14.5516257,4.65789474 C15.6659223,4.65789474 16.570279,5.55978947 16.570279,6.67105263 L16.570279,20.7631579" stroke="#A4AFB7" transform="translate(12.736842, 18.750000) scale(-1, 1) translate(-12.736842, -18.750000) "></path>
                <path d="M15.8344421,7.83606041 C15.9557053,7.38395973 16.0421053,6.91648146 16.0421053,6.42593684 C16.0421053,3.45345172 13.6668632,1.04378581 10.7368421,1.04378581 C7.80682105,1.04378581 5.43157895,3.45345172 5.43157895,6.42593684 C5.43157895,7.37473318 5.69381053,8.25279268 6.11974737,9.02782243" stroke="#71D7F7"></path>
            </g>
            <g transform="translate(0.000000, 27.789474)" stroke="#A4AFB7">
                <path d="M3.78947368,0.768878719 L3.78947368,13.0709382"></path>
                <polyline points="6.82105263 9.99542334 3.78947368 13.0709382 0.757894737 9.99542334"></polyline>
            </g>
            <g transform="translate(3.789474, 6.947368) scale(1, -1) translate(-3.789474, -6.947368) " stroke="#A4AFB7">
                <path d="M3.78947368,0.768878719 L3.78947368,13.0709382"></path>
                <polyline points="6.82105263 9.99542334 3.78947368 13.0709382 0.757894737 9.99542334"></polyline>
            </g>
        </g>
    </g>
</svg>