<svg width="48" height="48" viewBox="0 0 48 48" fill="none" xmlns="http://www.w3.org/2000/svg">
<path fill-rule="evenodd" clip-rule="evenodd" d="M42.1576 37.6651C42.1576 39.4415 40.7444 40.8804 38.9997 40.8804H8.99969C7.25495 40.8804 5.8418 39.4415 5.8418 37.6651V10.3349C5.8418 8.55848 7.25495 7.11963 8.99969 7.11963H38.9997C40.7444 7.11963 42.1576 8.55848 42.1576 10.3349V37.6651V37.6651Z" stroke="#9DA5AE" stroke-width="1.64211" stroke-linecap="round" stroke-linejoin="round"/>
<path d="M5.8418 13.5503H42.1576" stroke="#9DA5AE" stroke-width="1.64211" stroke-linecap="round" stroke-linejoin="round"/>
<path fill-rule="evenodd" clip-rule="evenodd" d="M9.78988 10.3349C9.78988 10.7786 9.4362 11.1388 9.00041 11.1388C8.56462 11.1388 8.21094 10.7786 8.21094 10.3349C8.21094 9.89121 8.56462 9.5311 9.00041 9.5311C9.4362 9.5311 9.78988 9.89121 9.78988 10.3349" fill="#9DA5AE"/>
<path fill-rule="evenodd" clip-rule="evenodd" d="M12.9461 10.3349C12.9461 10.7786 12.5925 11.1388 12.1567 11.1388C11.7209 11.1388 11.3672 10.7786 11.3672 10.3349C11.3672 9.89121 11.7209 9.5311 12.1567 9.5311C12.5925 9.5311 12.9461 9.89121 12.9461 10.3349" fill="#9DA5AE"/>
<path fill-rule="evenodd" clip-rule="evenodd" d="M16.1043 10.3349C16.1043 10.7786 15.7507 11.1388 15.3149 11.1388C14.8791 11.1388 14.5254 10.7786 14.5254 10.3349C14.5254 9.89121 14.8791 9.5311 15.3149 9.5311C15.7507 9.5311 16.1043 9.89121 16.1043 10.3349" fill="#9DA5AE"/>
<path d="M16.8945 21.5885L21.6314 26.4115L16.8945 31.2345" stroke="#E879F9" stroke-width="1.64211" stroke-linecap="round" stroke-linejoin="round"/>
<path d="M24.7891 29.6268H32.6838" stroke="#E879F9" stroke-width="1.64211" stroke-linecap="round" stroke-linejoin="round"/>
</svg>
