<svg width="48" height="48" viewBox="0 0 48 48" fill="none" xmlns="http://www.w3.org/2000/svg">
<path d="M22.7961 25.8158L19.5461 23.6537C17.9715 22.6088 15.8519 22.9712 14.7174 24.4791C14.134 25.2541 14.1885 26.3332 14.8446 27.0479L23.0141 35.9359C24.1627 37.1841 25.7817 37.8948 27.4794 37.8948H30.8707C35.3299 37.8948 38.9453 34.2892 38.9453 29.8421V21.7895C38.9453 20.6782 38.041 19.7763 36.9267 19.7763C35.8124 19.7763 34.908 20.6782 34.908 21.7895V22.7961V19.7763C34.908 18.6651 34.0036 17.7632 32.8894 17.7632C31.7751 17.7632 30.8707 18.6651 30.8707 19.7763V22.7961V17.7632C30.8707 16.6519 29.9663 15.75 28.852 15.75C27.7377 15.75 26.8334 16.6519 26.8334 17.7632V22.7961V11.7237C26.8334 10.6124 25.929 9.71054 24.8147 9.71054C23.7004 9.71054 22.7961 10.6124 22.7961 11.7237V25.8158" stroke="#9DA5AE" stroke-width="1.64211" stroke-linecap="round" stroke-linejoin="round"/>
<path d="M29.7271 12.8887C29.8483 12.4366 29.9347 11.9691 29.9347 11.4786C29.9347 8.5061 27.5595 6.09644 24.6295 6.09644C21.6995 6.09644 19.3242 8.5061 19.3242 11.4786C19.3242 12.4274 19.5865 13.3054 20.0124 14.0805" stroke="#E879F9" stroke-width="1.64211" stroke-linecap="round" stroke-linejoin="round"/>
<path d="M12.6309 32.3478V44.6499" stroke="#9DA5AE" stroke-width="1.64211" stroke-linecap="round" stroke-linejoin="round"/>
<path d="M15.6628 41.5744L12.6312 44.6499L9.59961 41.5744" stroke="#9DA5AE" stroke-width="1.64211" stroke-linecap="round" stroke-linejoin="round"/>
<path d="M12.6309 16.9153V4.61329" stroke="#9DA5AE" stroke-width="1.64211" stroke-linecap="round" stroke-linejoin="round"/>
<path d="M15.6628 7.68881L12.6312 4.6133L9.59961 7.68881" stroke="#9DA5AE" stroke-width="1.64211" stroke-linecap="round" stroke-linejoin="round"/>
</svg>
