<?xml version="1.0" encoding="UTF-8"?>
<svg width="48px" height="48px" viewBox="0 0 48 48" version="1.1" xmlns="http://www.w3.org/2000/svg" xmlns:xlink="http://www.w3.org/1999/xlink">
    <g stroke="none" stroke-width="1" fill="none" fill-rule="evenodd">
        <path d="M39.7894737,7.57894737 L39.7894737,17.1749075 L33.9867507,17.8006645 C32.7935306,17.9293396 31.8555283,18.8797332 31.7425229,20.0745391 L30.7739001,30.3157895 L13.8947368,30.3157895 L39.7894737,7.57894737 Z" fill="#F1F3F5"></path>
        <path d="M43.4054367,22.5173455 L43.4054367,33.8857666 C43.4054367,35.2810123 42.2743666,36.4120824 40.8791209,36.4120824 L31.4054367,36.4120824 L43.4054367,22.5173455 Z" fill="#F1F3F5"></path>
        <path d="M5.53846154,25.2845767 L5.53846154,32.1649428 C5.53846154,33.9232586 6.9314332,35.3502975 8.64777328,35.3502975 L36.6315789,35.3502975 C38.347919,35.3502975 39.7408907,33.9232586 39.7408907,32.1649428 L39.7408907,20.5791172 L39.7408907,9.86745995 C39.7408907,8.10914416 38.347919,6.68210526 36.6315789,6.68210526 L15.2496629,6.68210526" stroke="#A4AFB7" stroke-width="1.64210526" stroke-linecap="round" stroke-linejoin="round" transform="translate(22.639676, 21.016201) scale(-1, -1) translate(-22.639676, -21.016201) "></path>
        <path d="M33.5222672,41.7210069 L28.8696862,41.7210069 L21.456794,41.7210069 L11.757085,41.7210069 C11.757085,39.9626911 13.1500567,38.5356522 14.8663968,38.5356522 L23.9963942,38.5356522 L30.4129555,38.5356522" stroke="#A4AFB7" stroke-width="1.64210526" stroke-linecap="round" stroke-linejoin="round"></path>
        <path d="M5.53846154,30.5722654 L30.3935223,30.5722654" stroke="#A4AFB7" stroke-width="1.64210526" stroke-linecap="round" stroke-linejoin="round"></path>
        <path d="M21.0850202,38.5356522 L21.0850202,35.3502975" stroke="#A4AFB7" stroke-width="1.64210526" stroke-linecap="round" stroke-linejoin="round"></path>
        <path d="M24.194332,38.5356522 L24.194332,35.3502975" stroke="#A4AFB7" stroke-width="1.64210526" stroke-linecap="round" stroke-linejoin="round"></path>
        <path d="M40.8874494,41.6997712 L33.891498,41.6997712 C32.2354563,41.6997712 30.8932331,40.2737941 30.8932331,38.5144165 L30.8932331,20.4640732 C30.8932331,18.7046957 32.2354563,17.2787185 33.891498,17.2787185 L40.8874494,17.2787185 C42.543491,17.2787185 43.8857143,18.7046957 43.8857143,20.4640732 L43.8857143,38.5144165 C43.8857143,40.2737941 42.543491,41.6997712 40.8874494,41.6997712 L40.8874494,41.6997712 Z" stroke="#A4AFB7" stroke-width="1.64210526" stroke-linecap="round" stroke-linejoin="round"></path>
        <path d="M30.8932331,21.5258581 L43.8857143,21.5258581" stroke="#A4AFB7" stroke-width="1.64210526" stroke-linecap="round" stroke-linejoin="round"></path>
        <path d="M30.8932331,36.3908467 L43.8857143,36.3908467" stroke="#A4AFB7" stroke-width="1.64210526" stroke-linecap="round" stroke-linejoin="round"></path>
        <path d="M37.8891845,39.0453089 C37.8891845,39.3383616 37.6653141,39.5762014 37.3894737,39.5762014 C37.1136333,39.5762014 36.8897629,39.3383616 36.8897629,39.0453089 C36.8897629,38.7522563 37.1136333,38.5144165 37.3894737,38.5144165 C37.6653141,38.5144165 37.8891845,38.7522563 37.8891845,39.0453089 L37.8891845,39.0453089 Z" stroke="#71D7F7" stroke-width="1.64210526" stroke-linecap="round" stroke-linejoin="round"></path>
        <path d="M23.7362637,32.7782151 C23.7362637,33.0712677 23.5123933,33.3091076 23.2365529,33.3091076 C22.9607126,33.3091076 22.7368421,33.0712677 22.7368421,32.7782151 C22.7368421,32.4851625 22.9607126,32.2473227 23.2365529,32.2473227 C23.5123933,32.2473227 23.7362637,32.4851625 23.7362637,32.7782151 L23.7362637,32.7782151 Z" stroke="#71D7F7" stroke-width="1.64210526" stroke-linecap="round" stroke-linejoin="round"></path>
        <path d="M35.8903412,19.4022883 L38.8886061,19.4022883" stroke="#A4AFB7" stroke-width="1.64210526" stroke-linecap="round" stroke-linejoin="round"></path>
        <path d="M15.2433572,12.1894737 L10.9263158,21.3830128 L10.9263158,24.9824561 C10.9263158,25.3816514 11.2499275,25.7052632 11.6491228,25.7052632 L33.8245614,25.7052632 C34.2237567,25.7052632 34.5473684,25.3816514 34.5473684,24.9824561 L34.5473684,12.9122807 C34.5473684,12.5130854 34.2237567,12.1894737 33.8245614,12.1894737 L15.2433572,12.1894737 Z" stroke="#A4AFB7" stroke-width="1.64210526" transform="translate(22.736842, 18.947368) scale(-1, -1) translate(-22.736842, -18.947368) "></path>
        <rect stroke="#A4AFB7" stroke-width="1.64210526" x="34.2947368" y="24.8210526" width="5.93684211" height="8.46315789" rx="1.54385965"></rect>
    </g>
</svg>