<svg width="48" height="48" viewBox="0 0 48 48" fill="none" xmlns="http://www.w3.org/2000/svg">
<path fill-rule="evenodd" clip-rule="evenodd" d="M27.915 13.6353C27.915 16.147 25.8793 18.1827 23.3677 18.1827C20.856 18.1827 18.8203 16.147 18.8203 13.6353C18.8203 11.1236 20.856 9.08792 23.3677 9.08792C25.8793 9.08792 27.915 11.1236 27.915 13.6353Z" stroke="#9DA5AE" stroke-width="1.64211" stroke-linecap="round" stroke-linejoin="round"/>
<path fill-rule="evenodd" clip-rule="evenodd" d="M38.0358 18.1827C38.0358 19.8576 36.6792 21.2143 35.0042 21.2143C33.3293 21.2143 31.9727 19.8576 31.9727 18.1827C31.9727 16.5077 33.3293 15.1511 35.0042 15.1511C36.6792 15.1511 38.0358 16.5077 38.0358 18.1827Z" stroke="#9DA5AE" stroke-width="1.64211" stroke-linecap="round" stroke-linejoin="round"/>
<path fill-rule="evenodd" clip-rule="evenodd" d="M9.78906 18.1827C9.78906 19.8576 11.1457 21.2143 12.8206 21.2143C14.4941 21.2143 15.8522 19.8576 15.8522 18.1827C15.8522 16.5077 14.4941 15.1511 12.8206 15.1511C11.1457 15.1511 9.78906 16.5077 9.78906 18.1827Z" stroke="#9DA5AE" stroke-width="1.64211" stroke-linecap="round" stroke-linejoin="round"/>
<path d="M14.4531 30.309C14.4531 25.2856 18.7311 21.2142 24.0092 21.2142C29.2873 21.2142 33.5653 25.2856 33.5653 30.309" stroke="#9DA5AE" stroke-width="1.64211" stroke-linecap="round" stroke-linejoin="round"/>
<path d="M31.8594 25.1206C32.8214 24.5658 33.9506 24.246 35.1578 24.246C38.676 24.246 41.5285 26.9608 41.5285 30.3091" stroke="#9DA5AE" stroke-width="1.64211" stroke-linecap="round" stroke-linejoin="round"/>
<path d="M16.1594 25.1206C15.1974 24.5658 14.0682 24.246 12.8609 24.246C9.34272 24.246 6.49023 26.9608 6.49023 30.3091" stroke="#9DA5AE" stroke-width="1.64211" stroke-linecap="round" stroke-linejoin="round"/>
<circle cx="24.0632" cy="30.6316" r="6.63158" stroke="#9DA5AE" stroke-width="1.64211"/>
<path d="M21.4121 33.5212L26.2499 27.9158" stroke="#E879F9" stroke-width="1.64211" stroke-linecap="round" stroke-linejoin="round"/>
<path d="M26.25 33.5212L21.4122 27.9158" stroke="#E879F9" stroke-width="1.64211" stroke-linecap="round" stroke-linejoin="round"/>
</svg>
