<?xml version="1.0" encoding="UTF-8"?>
<svg width="48px" height="48px" viewBox="0 0 48 48" version="1.1" xmlns="http://www.w3.org/2000/svg" xmlns:xlink="http://www.w3.org/1999/xlink">
    <!-- Generator: Sketch 52.5 (67469) - http://www.bohemiancoding.com/sketch -->
    <title>After X page views Copy</title>
    <desc>Created with Sketch.</desc>
    <g id="After-X-page-views-Copy" stroke="none" stroke-width="1" fill="none" fill-rule="evenodd">
        <g id="Group" transform="translate(5.052632, 7.578947)">
            <path d="M30.7894737,3.78947368 C32.5342105,3.78947368 33.9473684,5.14610526 33.9473684,6.82105263 L33.9473684,16.4639186" id="Stroke-1029" stroke="#A4AFB7" stroke-width="1.64210526" stroke-linecap="round" stroke-linejoin="round"></path>
            <path d="M24.1677632,26.5263158 L7.10526316,26.5263158 C5.36052632,26.5263158 3.94736842,25.1696842 3.94736842,23.4947368" id="Stroke-1029-Copy" stroke="#A4AFB7" stroke-width="1.64210526" stroke-linecap="round" stroke-linejoin="round"></path>
            <path d="M25.5400905,29.5578947 L10.2631579,29.5578947 C8.51842105,29.5578947 7.10526316,28.2012632 7.10526316,26.5263158" id="Stroke-1031" stroke="#A4AFB7" stroke-width="1.64210526" stroke-linecap="round" stroke-linejoin="round"></path>
            <path d="M33.9473684,6.82105263 C35.6921053,6.82105263 37.1052632,8.17768421 37.1052632,9.85263158 L37.1052632,18.1301398" id="Stroke-1031-Copy" stroke="#A4AFB7" stroke-width="1.64210526" stroke-linecap="round" stroke-linejoin="round"></path>
            <path d="M33.9473684,9.85263158 L30.7894737,9.85263158" id="Stroke-1033" stroke="#A4AFB7" stroke-width="1.64210526" stroke-linecap="round" stroke-linejoin="round"></path>
            <path d="M37.1052632,12.8842105 L33.9473684,12.8842105" id="Stroke-1035" stroke="#A4AFB7" stroke-width="1.64210526" stroke-linecap="round" stroke-linejoin="round"></path>
            <path d="M31.0028783,7.09786184 L31.0961181,16.7097039 L26.9511032,18.2432286 C26.2899982,18.4878166 25.7102175,18.9119527 25.2769314,19.4679619 L22.5416324,22.9780016 L1.3541324,22.9780016 L31.0028783,7.09786184 Z" id="Rectangle" fill="#F1F3F5" fill-rule="nonzero"></path>
            <path d="M23.9015589,23.4947368 L3.94736842,23.4947368 C2.20263158,23.4947368 0.789473684,22.1381053 0.789473684,20.4631579 L0.789473684,3.78947368 C0.789473684,2.11452632 2.20263158,0.757894737 3.94736842,0.757894737 L27.6315789,0.757894737 C29.3763158,0.757894737 30.7894737,2.11452632 30.7894737,3.78947368 L30.7894737,16.2588405" id="Stroke-1019" stroke="#A4AFB7" stroke-width="1.64210526" stroke-linecap="round" stroke-linejoin="round"></path>
            <ellipse id="Oval-Copy-4" stroke="#A4AFB7" stroke-width="1.64210526" fill-rule="nonzero" cx="31.8315789" cy="24.3734554" rx="7.83157895" ry="7.96338673"></ellipse>
            <path d="M0.789473684,6.82105263 L30.7894737,6.82105263" id="Stroke-1021" stroke="#A4AFB7" stroke-width="1.64210526" stroke-linecap="round" stroke-linejoin="round"></path>
            <path d="M4.73684211,3.78947368 C4.73684211,4.20783158 4.38315789,4.54736842 3.94736842,4.54736842 C3.51157895,4.54736842 3.15789474,4.20783158 3.15789474,3.78947368 C3.15789474,3.37111579 3.51157895,3.03157895 3.94736842,3.03157895 C4.38315789,3.03157895 4.73684211,3.37111579 4.73684211,3.78947368" id="Fill-1023" fill="#A4AFB7"></path>
            <path d="M7.89473684,3.78947368 C7.89473684,4.20783158 7.54105263,4.54736842 7.10526316,4.54736842 C6.66947368,4.54736842 6.31578947,4.20783158 6.31578947,3.78947368 C6.31578947,3.37111579 6.66947368,3.03157895 7.10526316,3.03157895 C7.54105263,3.03157895 7.89473684,3.37111579 7.89473684,3.78947368" id="Fill-1025" fill="#A4AFB7"></path>
            <path d="M11.0526316,3.78947368 C11.0526316,4.20783158 10.6989474,4.54736842 10.2631579,4.54736842 C9.82736842,4.54736842 9.47368421,4.20783158 9.47368421,3.78947368 C9.47368421,3.37111579 9.82736842,3.03157895 10.2631579,3.03157895 C10.6989474,3.03157895 11.0526316,3.37111579 11.0526316,3.78947368" id="Fill-1027" fill="#A4AFB7"></path>
            <path d="M34.0984786,27.2097039 C34.0984786,27.4798533 34.0475951,27.7333459 33.9458265,27.9701891 C33.8440579,28.2070324 33.7043594,28.4142672 33.526727,28.5918997 C33.3490945,28.7695321 33.1418597,28.9092306 32.9050164,29.0109992 C32.6681732,29.1127678 32.4146806,29.1636513 32.1445312,29.1636513 L31.8059211,29.1636513 C31.5357717,29.1636513 31.281354,29.1127678 31.0426604,29.0109992 C30.8039667,28.9092306 30.5958068,28.7695321 30.4181743,28.5918997 C30.2405419,28.4142672 30.1008434,28.2070324 29.9990748,27.9701891 C29.8973062,27.7333459 29.8464227,27.4798533 29.8464227,27.2097039 L29.8464227,27.0043174 L30.5625,26.8932977 L30.5625,27.2097039 C30.5625,27.3873364 30.5958056,27.5529392 30.6624178,27.7065173 C30.7290299,27.8600953 30.8206203,27.995168 30.9371916,28.1117393 C31.0537629,28.2283106 31.1888356,28.319901 31.3424137,28.3865132 C31.4959917,28.4531253 31.6615945,28.4864309 31.839227,28.4864309 L32.1112253,28.4864309 C32.2888578,28.4864309 32.4544606,28.4531253 32.6080387,28.3865132 C32.7616167,28.319901 32.8957642,28.2283106 33.0104852,28.1117393 C33.1252062,27.995168 33.2158714,27.8600953 33.2824836,27.7065173 C33.3490957,27.5529392 33.3824013,27.3873364 33.3824013,27.2097039 L33.3824013,26.5491365 C33.3824013,26.371504 33.3490957,26.2059013 33.2824836,26.0523232 C33.2158714,25.8987451 33.1252062,25.7645976 33.0104852,25.6498766 C32.8957642,25.5351557 32.7616167,25.4444905 32.6080387,25.3778783 C32.4544606,25.3112661 32.2888578,25.2779605 32.1112253,25.2779605 L31.5783306,25.2779605 L31.5783306,24.5951891 L32.1112253,24.5951891 C32.2888578,24.5951891 32.4544606,24.5618836 32.6080387,24.4952714 C32.7616167,24.4286592 32.8957642,24.337994 33.0104852,24.223273 C33.1252062,24.1085521 33.2158714,23.9744046 33.2824836,23.8208265 C33.3490957,23.6672484 33.3824013,23.5016456 33.3824013,23.3240132 L33.3824013,22.9354441 C33.3824013,22.7578116 33.3490957,22.5922088 33.2824836,22.4386308 C33.2158714,22.2850527 33.1252062,22.1509052 33.0104852,22.0361842 C32.8957642,21.9214632 32.7616167,21.830798 32.6080387,21.7641859 C32.4544606,21.6975737 32.2888578,21.6642681 32.1112253,21.6642681 L31.839227,21.6642681 C31.6615945,21.6642681 31.4959917,21.6975737 31.3424137,21.7641859 C31.1888356,21.830798 31.0537629,21.9214632 30.9371916,22.0361842 C30.8206203,22.1509052 30.7290299,22.2850527 30.6624178,22.4386308 C30.5958056,22.5922088 30.5625,22.7578116 30.5625,22.9354441 L30.5625,23.2574013 L29.8464227,23.1408306 L29.8464227,22.9354441 C29.8464227,22.6652947 29.8973062,22.4118022 29.9990748,22.1749589 C30.1008434,21.9381156 30.2405419,21.7308808 30.4181743,21.5532484 C30.5958068,21.3756159 30.8039667,21.2359174 31.0426604,21.1341488 C31.281354,21.0323802 31.5357717,20.9814967 31.8059211,20.9814967 L32.1445312,20.9814967 C32.4146806,20.9814967 32.6681732,21.0323802 32.9050164,21.1341488 C33.1418597,21.2359174 33.3490945,21.3756159 33.526727,21.5532484 C33.7043594,21.7308808 33.8440579,21.9381156 33.9458265,22.1749589 C34.0475951,22.4118022 34.0984786,22.6652947 34.0984786,22.9354441 L34.0984786,23.2074424 C34.0984786,23.3961769 34.0734994,23.5765822 34.0235403,23.7486637 C33.9735812,23.9207451 33.9032694,24.080797 33.8126028,24.228824 C33.7219362,24.3768511 33.6136931,24.5109986 33.4878701,24.6312706 C33.3620471,24.7515425 33.2214235,24.8542348 33.0659951,24.9393503 C33.2214235,25.0207652 33.3620471,25.1216071 33.4878701,25.2418791 C33.6136931,25.3621511 33.7219362,25.4962986 33.8126028,25.6443257 C33.9032694,25.7923527 33.9735812,25.9524046 34.0235403,26.124486 C34.0734994,26.2965675 34.0984786,26.4769727 34.0984786,26.6657072 L34.0984786,27.2097039 Z" id="3" stroke="#71D7F7" stroke-width="0.884210526" fill="#71D7F7" stroke-linecap="round" stroke-linejoin="round"></path>
        </g>
    </g>
</svg>