<svg width="48" height="48" viewBox="0 0 48 48" fill="none" xmlns="http://www.w3.org/2000/svg">
<path d="M35.8418 11.3684C37.5865 11.3684 38.9997 12.725 38.9997 14.4C38.9997 14.4 38.9997 20.8286 38.9997 24.0429" stroke="#9DA5AE" stroke-width="1.64211" stroke-linecap="round" stroke-linejoin="round"/>
<path d="M29.2204 34.1052C23.5329 34.1052 12.1579 34.1052 12.1579 34.1052C10.4132 34.1052 9 32.7486 9 31.0737" stroke="#9DA5AE" stroke-width="1.64211" stroke-linecap="round" stroke-linejoin="round"/>
<path d="M30.593 37.1369C25.5007 37.1369 15.3161 37.1369 15.3161 37.1369C13.5714 37.1369 12.1582 35.7802 12.1582 34.1053" stroke="#9DA5AE" stroke-width="1.64211" stroke-linecap="round" stroke-linejoin="round"/>
<path d="M39 14.4C40.7447 14.4 42.1579 15.7567 42.1579 17.4316C42.1579 17.4316 42.1579 22.9499 42.1579 25.7091" stroke="#9DA5AE" stroke-width="1.64211" stroke-linecap="round" stroke-linejoin="round"/>
<path d="M38.9997 17.4316H35.8418" stroke="#9DA5AE" stroke-width="1.64211" stroke-linecap="round" stroke-linejoin="round"/>
<path d="M42.1579 20.4632H39" stroke="#9DA5AE" stroke-width="1.64211" stroke-linecap="round" stroke-linejoin="round"/>
<path d="M28.9539 31.0737H8.99969C7.25495 31.0737 5.8418 29.7171 5.8418 28.0421V11.3684C5.8418 9.69348 7.25495 8.33685 8.99969 8.33685H32.6839C34.4286 8.33685 35.8418 9.69348 35.8418 11.3684V23.8378" stroke="#9DA5AE" stroke-width="1.64211" stroke-linecap="round" stroke-linejoin="round"/>
<ellipse cx="36.8843" cy="31.9524" rx="7.83158" ry="7.96339" stroke="#9DA5AE" stroke-width="1.64211"/>
<path d="M5.8418 14.4H35.8418" stroke="#9DA5AE" stroke-width="1.64211" stroke-linecap="round" stroke-linejoin="round"/>
<path fill-rule="evenodd" clip-rule="evenodd" d="M9.78988 11.3684C9.78988 11.7868 9.4362 12.1263 9.00041 12.1263C8.56462 12.1263 8.21094 11.7868 8.21094 11.3684C8.21094 10.9501 8.56462 10.6105 9.00041 10.6105C9.4362 10.6105 9.78988 10.9501 9.78988 11.3684" fill="#9DA5AE"/>
<path fill-rule="evenodd" clip-rule="evenodd" d="M12.9461 11.3684C12.9461 11.7868 12.5925 12.1263 12.1567 12.1263C11.7209 12.1263 11.3672 11.7868 11.3672 11.3684C11.3672 10.9501 11.7209 10.6105 12.1567 10.6105C12.5925 10.6105 12.9461 10.9501 12.9461 11.3684" fill="#9DA5AE"/>
<path fill-rule="evenodd" clip-rule="evenodd" d="M16.1043 11.3684C16.1043 11.7868 15.7507 12.1263 15.3149 12.1263C14.8791 12.1263 14.5254 11.7868 14.5254 11.3684C14.5254 10.9501 14.8791 10.6105 15.3149 10.6105C15.7507 10.6105 16.1043 10.9501 16.1043 11.3684" fill="#9DA5AE"/>
<path fill-rule="evenodd" clip-rule="evenodd" d="M39.1505 34.2281C39.1505 34.4983 39.0996 34.7518 38.9978 34.9886C38.8961 35.2255 38.7564 35.4327 38.5787 35.6103C38.4011 35.788 38.1939 35.9277 37.957 36.0294C37.7202 36.1312 37.4667 36.1821 37.1965 36.1821H36.8579C36.5878 36.1821 36.3334 36.1312 36.0947 36.0294C35.856 35.9277 35.6478 35.788 35.4702 35.6103C35.2926 35.4327 35.1529 35.2255 35.0511 34.9886C34.9493 34.7518 34.8984 34.4983 34.8984 34.2281V34.0228L35.6145 33.9117V34.2281C35.6145 34.4058 35.6478 34.5714 35.7144 34.725C35.781 34.8785 35.8726 35.0136 35.9892 35.1302C36.1058 35.2468 36.2409 35.3383 36.3944 35.405C36.548 35.4716 36.7136 35.5049 36.8912 35.5049H37.1632C37.3409 35.5049 37.5065 35.4716 37.6601 35.405C37.8136 35.3383 37.9478 35.2468 38.0625 35.1302C38.1772 35.0136 38.2679 34.8785 38.3345 34.725C38.4011 34.5714 38.4344 34.4058 38.4344 34.2281V33.5676C38.4344 33.3899 38.4011 33.2243 38.3345 33.0708C38.2679 32.9172 38.1772 32.783 38.0625 32.6683C37.9478 32.5536 37.8136 32.4629 37.6601 32.3963C37.5065 32.3297 37.3409 32.2964 37.1632 32.2964H36.6303V31.6136H37.1632C37.3409 31.6136 37.5065 31.5803 37.6601 31.5137C37.8136 31.4471 37.9478 31.3564 38.0625 31.2417C38.1772 31.127 38.2679 30.9928 38.3345 30.8393C38.4011 30.6857 38.4344 30.5201 38.4344 30.3425V29.9539C38.4344 29.7763 38.4011 29.6107 38.3345 29.4571C38.2679 29.3035 38.1772 29.1693 38.0625 29.0546C37.9478 28.9399 37.8136 28.8492 37.6601 28.7826C37.5065 28.716 37.3409 28.6827 37.1632 28.6827H36.8912C36.7136 28.6827 36.548 28.716 36.3944 28.7826C36.2409 28.8492 36.1058 28.9399 35.9892 29.0546C35.8726 29.1693 35.781 29.3035 35.7144 29.4571C35.6478 29.6107 35.6145 29.7763 35.6145 29.9539V30.2758L34.8984 30.1593V29.9539C34.8984 29.6837 34.9493 29.4302 35.0511 29.1934C35.1529 28.9566 35.2926 28.7493 35.4702 28.5717C35.6478 28.3941 35.856 28.2544 36.0947 28.1526C36.3334 28.0508 36.5878 27.9999 36.8579 27.9999H37.1965C37.4667 27.9999 37.7202 28.0508 37.957 28.1526C38.1939 28.2544 38.4011 28.3941 38.5787 28.5717C38.7564 28.7493 38.8961 28.9566 38.9978 29.1934C39.0996 29.4302 39.1505 29.6837 39.1505 29.9539V30.2259C39.1505 30.4146 39.1255 30.595 39.0756 30.7671C39.0256 30.9392 38.9553 31.0992 38.8646 31.2473C38.774 31.3953 38.6657 31.5294 38.5399 31.6497C38.4141 31.77 38.2734 31.8727 38.118 31.9578C38.2734 32.0392 38.4141 32.14 38.5399 32.2603C38.6657 32.3806 38.774 32.5147 38.8646 32.6628C38.9553 32.8108 39.0256 32.9708 39.0756 33.1429C39.1255 33.315 39.1505 33.4954 39.1505 33.6841V34.2281Z" fill="#E879F9" stroke="#E879F9" stroke-width="0.884211" stroke-linecap="round" stroke-linejoin="round"/>
</svg>
