<svg width="48" height="49" viewBox="0 0 48 49" fill="none" xmlns="http://www.w3.org/2000/svg">
<path fill-rule="evenodd" clip-rule="evenodd" d="M37.6612 14.7199V28.3449L37.5973 39.884C37.5912 40.9842 36.6975 41.8729 35.5973 41.8729H12.112L4.02856 41.7419L37.6612 14.7199Z" fill="#F1F3F5"/>
<path d="M3.74951 13.6765H36.6421" stroke="#A4AFB7" stroke-width="1.64211" stroke-linecap="round" stroke-linejoin="round"/>
<path fill-rule="evenodd" clip-rule="evenodd" d="M7.66519 10.4911C7.66519 10.9307 7.31434 11.2874 6.88203 11.2874C6.44973 11.2874 6.09888 10.9307 6.09888 10.4911C6.09888 10.0515 6.44973 9.69476 6.88203 9.69476C7.31434 9.69476 7.66519 10.0515 7.66519 10.4911Z" fill="#A4AFB7"/>
<path fill-rule="evenodd" clip-rule="evenodd" d="M10.798 10.4911C10.798 10.9307 10.4472 11.2874 10.0148 11.2874C9.58254 11.2874 9.23169 10.9307 9.23169 10.4911C9.23169 10.0515 9.58254 9.69476 10.0148 9.69476C10.4472 9.69476 10.798 10.0515 10.798 10.4911Z" fill="#A4AFB7"/>
<path fill-rule="evenodd" clip-rule="evenodd" d="M13.9306 10.4911C13.9306 10.9307 13.5797 11.2874 13.1474 11.2874C12.7151 11.2874 12.3643 10.9307 12.3643 10.4911C12.3643 10.0515 12.7151 9.69476 13.1474 9.69476C13.5797 9.69476 13.9306 10.0515 13.9306 10.4911Z" fill="#A4AFB7"/>
<path d="M33.7242 7.14099H6.94524C4.85237 7.14099 3.15576 8.8376 3.15576 10.9305V38.0631C3.15576 40.156 4.85237 41.8526 6.94524 41.8526H33.7242C35.8171 41.8526 37.5137 40.156 37.5137 38.0631V10.9305C37.5137 8.8376 35.8171 7.14099 33.7242 7.14099Z" stroke="#A4AFB7" stroke-width="1.64211"/>
<path d="M43.2367 19.1872H28.9999C27.8766 19.1872 26.9661 20.0978 26.9661 21.221V35.4579C26.9661 36.5811 27.8766 37.4917 28.9999 37.4917H43.2367C44.36 37.4917 45.2706 36.5811 45.2706 35.4579V21.221C45.2706 20.0978 44.36 19.1872 43.2367 19.1872Z" fill="white" stroke="#58D0F5" stroke-width="1.64" stroke-linecap="round" stroke-linejoin="round"/>
<path d="M40.1858 17.1533V21.221" stroke="#58D0F5" stroke-width="1.64" stroke-linecap="round" stroke-linejoin="round"/>
<path d="M32.0505 17.1533V21.221" stroke="#58D0F5" stroke-width="1.64" stroke-linecap="round" stroke-linejoin="round"/>
<path d="M26.9661 25.2886H45.2706" stroke="#58D0F5" stroke-width="1.64" stroke-linecap="round" stroke-linejoin="round"/>
</svg>
