<svg width="48" height="48" viewBox="0 0 48 48" fill="none" xmlns="http://www.w3.org/2000/svg">
<path d="M7.09961 12.8513H39.9922" stroke="#9DA5AE" stroke-width="1.64211" stroke-linecap="round" stroke-linejoin="round"/>
<path fill-rule="evenodd" clip-rule="evenodd" d="M11.0155 9.66591C11.0155 10.1055 10.6647 10.4622 10.2324 10.4622C9.80007 10.4622 9.44922 10.1055 9.44922 9.66591C9.44922 9.22633 9.80007 8.86957 10.2324 8.86957C10.6647 8.86957 11.0155 9.22633 11.0155 9.66591" fill="#9DA5AE"/>
<path fill-rule="evenodd" clip-rule="evenodd" d="M14.1483 9.66591C14.1483 10.1055 13.7975 10.4622 13.3652 10.4622C12.9329 10.4622 12.582 10.1055 12.582 9.66591C12.582 9.22633 12.9329 8.86957 13.3652 8.86957C13.7975 8.86957 14.1483 9.22633 14.1483 9.66591" fill="#9DA5AE"/>
<path fill-rule="evenodd" clip-rule="evenodd" d="M17.2812 9.66591C17.2812 10.1055 16.9303 10.4622 16.498 10.4622C16.0657 10.4622 15.7148 10.1055 15.7148 9.66591C15.7148 9.22633 16.0657 8.86957 16.498 8.86957C16.9303 8.86957 17.2812 9.22633 17.2812 9.66591" fill="#9DA5AE"/>
<path d="M10.7949 17.9368C10.7949 17.7973 10.908 17.6842 11.0476 17.6842L36.3794 17.6842C36.5189 17.6842 36.632 17.7973 36.632 17.9368V36.3789C36.632 36.5185 36.5189 36.6316 36.3794 36.6316H11.0476C10.908 36.6316 10.7949 36.5185 10.7949 36.3789V17.9368Z" stroke="#9DA5AE" stroke-width="1.64211"/>
<path fill-rule="evenodd" clip-rule="evenodd" d="M30.9472 28.986C30.9472 28.986 27.7246 33.0666 24.209 33.0666C20.6933 33.0666 17.4707 28.986 17.4707 28.986C17.4707 28.986 20.6933 24.9053 24.209 24.9053C28.3105 24.9053 30.9472 28.986 30.9472 28.986Z" stroke="#E879F9" stroke-width="1.64211" stroke-linecap="round" stroke-linejoin="round"/>
<path fill-rule="evenodd" clip-rule="evenodd" d="M26.8169 27.8807C26.8169 29.524 25.5773 30.8562 24.0481 30.8562C22.5189 30.8562 21.2793 29.524 21.2793 27.8807C21.2793 26.2375 22.5189 24.9053 24.0481 24.9053C25.5773 24.9053 26.8169 26.2375 26.8169 27.8807Z" stroke="#E879F9" stroke-width="1.64211" stroke-linecap="round" stroke-linejoin="round"/>
<path d="M22.1776 22.6072L22.4815 24.7791" stroke="#E879F9" stroke-width="1.64211" stroke-linecap="round"/>
<path d="M28.8395 23.5249L27.9561 25.2598" stroke="#E879F9" stroke-width="1.64211" stroke-linecap="round"/>
<path d="M25.6578 22.1114L25.2981 24.3033" stroke="#E879F9" stroke-width="1.64211" stroke-linecap="round"/>
<path d="M18.7502 24.1161L19.976 25.8934" stroke="#E879F9" stroke-width="1.64211" stroke-linecap="round"/>
<rect x="6.50586" y="6.3158" width="34.3579" height="34.7116" rx="3.78947" stroke="#9DA5AE" stroke-width="1.64211"/>
</svg>
