<?xml version="1.0" encoding="UTF-8"?>
<svg width="48px" height="48px" viewBox="0 0 48 48" version="1.1" xmlns="http://www.w3.org/2000/svg" xmlns:xlink="http://www.w3.org/1999/xlink">
    <g stroke="none" stroke-width="1" fill="none" fill-rule="evenodd">
        <g transform="translate(6.315789, 6.315789)">
            <polygon fill="#F1F3F5" points="34.6949013 7.57894737 34.6949013 21.2039428 34.6199225 34.7319079 9.14569952 34.7319079 1.06224301 34.600917"></polygon>
            <g transform="translate(0.000000, 1.894737)">
                <path d="M0.783157895,4.64073227 L33.6757895,4.64073227" stroke="#A4AFB7" stroke-width="1.64210526" stroke-linecap="round" stroke-linejoin="round"></path>
                <path d="M4.69894737,1.45537757 C4.69894737,1.89495652 4.34809263,2.25171625 3.91578947,2.25171625 C3.48348632,2.25171625 3.13263158,1.89495652 3.13263158,1.45537757 C3.13263158,1.01579863 3.48348632,0.659038902 3.91578947,0.659038902 C4.34809263,0.659038902 4.69894737,1.01579863 4.69894737,1.45537757" fill="#A4AFB7"></path>
                <path d="M7.83157895,1.45537757 C7.83157895,1.89495652 7.48072421,2.25171625 7.04842105,2.25171625 C6.61611789,2.25171625 6.26526316,1.89495652 6.26526316,1.45537757 C6.26526316,1.01579863 6.61611789,0.659038902 7.04842105,0.659038902 C7.48072421,0.659038902 7.83157895,1.01579863 7.83157895,1.45537757" fill="#A4AFB7"></path>
                <path d="M10.9642105,1.45537757 C10.9642105,1.89495652 10.6133558,2.25171625 10.1810526,2.25171625 C9.74874947,2.25171625 9.39789474,1.89495652 9.39789474,1.45537757 C9.39789474,1.01579863 9.74874947,0.659038902 10.1810526,0.659038902 C10.6133558,0.659038902 10.9642105,1.01579863 10.9642105,1.45537757" fill="#A4AFB7"></path>
            </g>
            <path d="M4.7313528,11.3684144 L30.0631588,11.3684144 C30.2026834,11.3684144 30.3157904,11.4815214 30.3157904,11.6210459 L30.3157904,30.0631579 C30.3157904,30.2026825 30.2026834,30.3157895 30.0631588,30.3157895 L4.7313528,30.3157895 C4.59182823,30.3157895 4.47872122,30.2026825 4.47872122,30.0631579 L4.47872122,11.6210459 C4.47872122,11.4815214 4.59182823,11.3684144 4.7313528,11.3684144 Z" stroke="#A4AFB7" stroke-width="1.64210526"></path>
            <g transform="translate(10.736842, 15.157895)" stroke="#71D7F7" stroke-linecap="round" stroke-width="1.64210526">
                <path d="M13.8947368,7.51225891 C13.8947368,7.51225891 10.6720954,11.5928763 7.15648653,11.5928763 C3.64087768,11.5928763 0.418236226,7.51225891 0.418236226,7.51225891 C0.418236226,7.51225891 3.64087768,3.43164149 7.15648653,3.43164149 C11.2580302,3.43164149 13.8947368,7.51225891 13.8947368,7.51225891 Z" stroke-linejoin="round"></path>
                <path d="M9.7644291,6.40705234 C9.7644291,8.05032926 8.52479407,9.3824632 6.9956208,9.3824632 C5.46644752,9.3824632 4.22681249,8.05032926 4.22681249,6.40705234 C4.22681249,4.76377543 5.46644752,3.43164149 6.9956208,3.43164149 C8.52479407,3.43164149 9.7644291,4.76377543 9.7644291,6.40705234 Z" stroke-linejoin="round"></path>
                <path d="M6.01776171,6.39250865 C6.01776171,5.94917985 6.36191258,5.39213647 6.70606345,5.39213647" stroke-linejoin="round"></path>
                <path d="M4.93900502,1.17642338 L5.61541758,3.26256795" transform="translate(5.277211, 2.219496) rotate(10.000000) translate(-5.277211, -2.219496) "></path>
                <path d="M10.7605478,2.14111291 L11.9318492,3.69631077" transform="translate(11.346198, 2.918712) scale(-1, 1) rotate(10.000000) translate(-11.346198, -2.918712) "></path>
                <path d="M8.41251985,0.623095916 L8.43887134,2.84424076" transform="translate(8.425696, 1.733668) rotate(10.000000) translate(-8.425696, -1.733668) "></path>
                <path d="M2.37802785,2.45370182 L2.24270012,4.60849176" transform="translate(2.310364, 3.531097) scale(-1, 1) rotate(-329.000000) translate(-2.310364, -3.531097) "></path>
            </g>
            <rect stroke="#A4AFB7" stroke-width="1.64210526" x="0.189473684" y="-2.18491891e-13" width="34.3578947" height="34.7115789" rx="3.78947368"></rect>
        </g>
    </g>
</svg>