<svg width="48" height="48" viewBox="0 0 48 48" fill="none" xmlns="http://www.w3.org/2000/svg">
<path fill-rule="evenodd" clip-rule="evenodd" d="M10.105 10.1053C10.105 10.4539 9.82201 10.7369 9.47338 10.7369C9.12474 10.7369 8.8418 10.4539 8.8418 10.1053C8.8418 9.75664 9.12474 9.47369 9.47338 9.47369C9.82201 9.47369 10.105 9.75664 10.105 10.1053" fill="#9DA5AE"/>
<path fill-rule="evenodd" clip-rule="evenodd" d="M12.6323 10.1053C12.6323 10.4539 12.3494 10.7369 12.0007 10.7369C11.6521 10.7369 11.3691 10.4539 11.3691 10.1053C11.3691 9.75664 11.6521 9.47369 12.0007 9.47369C12.3494 9.47369 12.6323 9.75664 12.6323 10.1053" fill="#9DA5AE"/>
<path fill-rule="evenodd" clip-rule="evenodd" d="M15.1577 10.1053C15.1577 10.4539 14.8747 10.7369 14.5261 10.7369C14.1775 10.7369 13.8945 10.4539 13.8945 10.1053C13.8945 9.75664 14.1775 9.47369 14.5261 9.47369C14.8747 9.47369 15.1577 9.75664 15.1577 10.1053" fill="#9DA5AE"/>
<path d="M25.569 39.1579H9.32393C7.66227 39.1579 6.31641 37.812 6.31641 36.1504V10.5865C6.31641 8.92481 7.66227 7.57895 9.32393 7.57895H34.8878C36.5495 7.57895 37.8954 8.92481 37.8954 10.5865V25.4839" stroke="#9DA5AE" stroke-width="1.64211" stroke-linecap="round" stroke-linejoin="round"/>
<path d="M6.31641 12.6316H37.8954" stroke="#9DA5AE" stroke-width="1.64211" stroke-linecap="round" stroke-linejoin="round"/>
<mask id="path-6-inside-1_1909_232771" fill="white">
<rect x="25.2637" y="25.2632" width="16.4211" height="16.4211" rx="1.54386"/>
</mask>
<rect x="25.2637" y="25.2632" width="16.4211" height="16.4211" rx="1.54386" stroke="#9DA5AE" stroke-width="3.28421" mask="url(#path-6-inside-1_1909_232771)"/>
<path fill-rule="evenodd" clip-rule="evenodd" d="M35.1148 16.6737V25.1649V25.2631H33.4727V25.1649V23.621V17.9649V16.6737C33.4727 16.5341 33.3596 16.421 33.2201 16.421H31.9288H12.2797H10.9885C10.849 16.421 10.7359 16.5341 10.7359 16.6737V17.9649V33.8245V35.1158C10.7359 35.2553 10.849 35.3684 10.9885 35.3684H12.2797H23.6201H25.1639H25.2622V33.8245H25.1639H23.6201H13.9218H12.378H12.2797V33.7263V32.1824V19.607V18.0631V17.9649H12.378H13.9218H30.2867H31.8306H31.9288V18.0631V19.607V23.621V25.1649V25.2631H30.2867V25.1649V19.607H13.9218V32.1824H25.1639H25.2622H25.2632V37.0105H25.2622H25.1639H10.9885C9.94205 37.0105 9.09375 36.1622 9.09375 35.1158V16.6737C9.09375 15.6272 9.94205 14.7789 10.9885 14.7789H33.2201C34.2665 14.7789 35.1148 15.6272 35.1148 16.6737Z" fill="#9DA5AE"/>
<path d="M34.2207 29.7416H29.7422V34.2201" stroke="#E879F9" stroke-width="1.64211" stroke-linecap="round" stroke-linejoin="round"/>
<path d="M37.5918 37.5915L29.7419 29.7416" stroke="#E879F9" stroke-width="1.64211" stroke-linecap="round" stroke-linejoin="round"/>
</svg>
