<?xml version="1.0" encoding="UTF-8"?>
<svg width="48px" height="48px" viewBox="0 0 48 48" version="1.1" xmlns="http://www.w3.org/2000/svg" xmlns:xlink="http://www.w3.org/1999/xlink">
    <g stroke="none" stroke-width="1" fill="none" fill-rule="evenodd">
        <path d="M10.1052632,10.1052632 C10.1052632,10.4538947 9.82231579,10.7368421 9.47368421,10.7368421 C9.12505263,10.7368421 8.84210526,10.4538947 8.84210526,10.1052632 C8.84210526,9.75663158 9.12505263,9.47368421 9.47368421,9.47368421 C9.82231579,9.47368421 10.1052632,9.75663158 10.1052632,10.1052632" fill="#A4AFB7"></path>
        <path d="M12.6315789,10.1052632 C12.6315789,10.4538947 12.3486316,10.7368421 12,10.7368421 C11.6513684,10.7368421 11.3684211,10.4538947 11.3684211,10.1052632 C11.3684211,9.75663158 11.6513684,9.47368421 12,9.47368421 C12.3486316,9.47368421 12.6315789,9.75663158 12.6315789,10.1052632" fill="#A4AFB7"></path>
        <path d="M15.1578947,10.1052632 C15.1578947,10.4538947 14.8749474,10.7368421 14.5263158,10.7368421 C14.1776842,10.7368421 13.8947368,10.4538947 13.8947368,10.1052632 C13.8947368,9.75663158 14.1776842,9.47368421 14.5263158,9.47368421 C14.8749474,9.47368421 15.1578947,9.75663158 15.1578947,10.1052632" fill="#A4AFB7"></path>
        <polygon fill="#F1F3F5" points="37.3894737 12.6315789 37.3894737 26.1408306 26.1058285 26.323088 26.2751336 39.2321111 6.69473684 39.2321111"></polygon>
        <path d="M29.7416268,37.5915212 L37.5915212,29.7416268" stroke="#71D7F7" stroke-width="1.64210526" stroke-linecap="round" stroke-linejoin="round" transform="translate(33.666574, 33.666574) scale(-1, 1) translate(-33.666574, -33.666574) "></path>
        <polyline stroke="#71D7F7" stroke-width="1.64210526" stroke-linecap="round" stroke-linejoin="round" transform="translate(31.980861, 31.980861) scale(-1, 1) translate(-31.980861, -31.980861) " points="29.7416268 29.7416268 34.2200957 29.7416268 34.2200957 34.2200957"></polyline>
        <rect stroke="#A4AFB7" stroke-width="1.64210526" x="26.0842105" y="26.0842105" width="14.7789474" height="14.7789474" rx="1.54385965"></rect>
        <path d="M25.5683887,39.1578947 L9.32330827,39.1578947 C7.66165414,39.1578947 6.31578947,37.8120301 6.31578947,36.1503759 L6.31578947,10.5864662 C6.31578947,8.92481203 7.66165414,7.57894737 9.32330827,7.57894737 L34.887218,7.57894737 C36.5488722,7.57894737 37.8947368,8.92481203 37.8947368,10.5864662 L37.8947368,25.4839387" stroke="#A4AFB7" stroke-width="1.64210526" stroke-linecap="round" stroke-linejoin="round"></path>
        <path d="M6.31578947,12.6315789 L37.8947368,12.6315789" stroke="#A4AFB7" stroke-width="1.64210526" stroke-linecap="round" stroke-linejoin="round"></path>
        <path d="M34.2947368,26.0842105 L26.5263158,26.0842105 C26.2821478,26.0842105 26.0842105,26.2821478 26.0842105,26.5263158 L26.0842105,36.1894737 L10.9894737,36.1894737 C10.3964943,36.1894737 9.91578947,35.7087689 9.91578947,35.1157895 L9.91578947,16.6736842 C9.91578947,16.0807048 10.3964943,15.6 10.9894737,15.6 L33.2210526,15.6 C33.814032,15.6 34.2947368,16.0807048 34.2947368,16.6736842 L34.2947368,26.0842105 Z" stroke="#A4AFB7" stroke-width="1.64210526"></path>
    </g>
</svg>