<svg width="48" height="48" viewBox="0 0 48 48" fill="none" xmlns="http://www.w3.org/2000/svg">
<path fill-rule="evenodd" clip-rule="evenodd" d="M37.9265 33.1866C37.9265 34.4662 36.8968 35.5032 35.6264 35.5032C34.3559 35.5032 33.3262 34.4662 33.3262 33.1866C33.3262 31.9071 34.3559 30.87 35.6264 30.87C36.8968 30.87 37.9265 31.9071 37.9265 33.1866Z" stroke="#E879F9" stroke-width="1.64211" stroke-linecap="round" stroke-linejoin="round"/>
<path d="M31.0254 40.6156C31.0254 38.0565 33.0848 35.9824 35.6258 35.9824C38.1667 35.9824 40.2261 38.0565 40.2261 40.6156" stroke="#E879F9" stroke-width="1.64211" stroke-linecap="round" stroke-linejoin="round"/>
<path d="M4.57227 13.4828H37.4649" stroke="#9DA5AE" stroke-width="1.64211" stroke-linecap="round" stroke-linejoin="round"/>
<path fill-rule="evenodd" clip-rule="evenodd" d="M8.48819 10.2975C8.48819 10.7371 8.13734 11.0938 7.70503 11.0938C7.27273 11.0938 6.92188 10.7371 6.92188 10.2975C6.92188 9.85792 7.27273 9.50116 7.70503 9.50116C8.13734 9.50116 8.48819 9.85792 8.48819 10.2975" fill="#9DA5AE"/>
<path fill-rule="evenodd" clip-rule="evenodd" d="M11.621 10.2975C11.621 10.7371 11.2701 11.0938 10.8378 11.0938C10.4055 11.0938 10.0547 10.7371 10.0547 10.2975C10.0547 9.85792 10.4055 9.50116 10.8378 9.50116C11.2701 9.50116 11.621 9.85792 11.621 10.2975" fill="#9DA5AE"/>
<path fill-rule="evenodd" clip-rule="evenodd" d="M14.7538 10.2975C14.7538 10.7371 14.403 11.0938 13.9707 11.0938C13.5384 11.0938 13.1875 10.7371 13.1875 10.2975C13.1875 9.85792 13.5384 9.50116 13.9707 9.50116C14.403 9.50116 14.7538 9.85792 14.7538 10.2975" fill="#9DA5AE"/>
<ellipse cx="35.6206" cy="34.4897" rx="7.83158" ry="7.96339" stroke="#9DA5AE" stroke-width="1.64211"/>
<path fill-rule="evenodd" clip-rule="evenodd" d="M5.39406 10.2975C5.39406 8.97806 6.44118 7.93318 7.70564 7.93318H34.333C35.5975 7.93318 36.6446 8.97806 36.6446 10.2975V25.7659C37.2107 25.8336 37.7599 25.9566 38.2867 26.1295V10.2975C38.2867 8.09709 36.5301 6.29108 34.333 6.29108H7.70564C5.50854 6.29108 3.75195 8.09709 3.75195 10.2975V37.373C3.75195 39.5734 5.50854 41.3794 7.70564 41.3794H30.1752C30.1999 41.3794 30.2244 41.3783 30.2486 41.3762C29.659 40.9012 29.132 40.35 28.682 39.7373H7.70564C6.44118 39.7373 5.39406 38.6924 5.39406 37.373V10.2975Z" fill="#9DA5AE"/>
<path fill-rule="evenodd" clip-rule="evenodd" d="M8.25142 17.179C7.65844 17.179 7.17773 17.6597 7.17773 18.2526V36.7474C7.17773 37.3404 7.65844 37.8211 8.25142 37.8211H28.8994C28.602 37.3078 28.3596 36.7576 28.1804 36.1789H8.81984V18.8211H33.1777V26.2266C33.7026 26.049 34.2522 25.9264 34.8198 25.8654V18.2526C34.8198 17.6597 34.3391 17.179 33.7462 17.179H8.25142Z" fill="#9DA5AE"/>
</svg>
