<?xml version="1.0" encoding="UTF-8"?>
<svg width="48px" height="48px" viewBox="0 0 48 48" version="1.1" xmlns="http://www.w3.org/2000/svg" xmlns:xlink="http://www.w3.org/1999/xlink">
    <g stroke="none" stroke-width="1" fill="none" fill-rule="evenodd">
        <g transform="translate(3.789474, 6.315789)">
            <path d="M33.4317434,7.57894737 L33.4317434,20.5701069 C31.4454047,20.3902772 30.000195,20.4573516 29.0961143,20.7713302 C28.3366647,21.0350797 27.468801,21.6433163 26.4925232,22.5960398 L26.4925256,22.5960423 C26.1200958,22.9594865 25.8265126,23.3957422 25.6300727,23.8776208 C24.8116366,25.8852924 24.3871113,27.4130304 24.3564967,28.4608347 C24.3224188,29.6271726 24.7443452,31.2964777 25.6222759,33.46875 L8.84210526,33.46875 L1.06224301,33.3438528 L33.4317434,7.57894737 Z" fill="#F1F3F5"></path>
            <path d="M26.3853824,34.2425629 L3.91578947,34.2425629 C2.18501053,34.2425629 0.783157895,32.8171167 0.783157895,31.0572082 L0.783157895,3.98169336 C0.783157895,2.2217849 2.18501053,0.796338673 3.91578947,0.796338673 L30.5431579,0.796338673 C32.2739368,0.796338673 33.6757895,2.2217849 33.6757895,3.98169336 L33.6757895,20.2136102" stroke="#A4AFB7" stroke-width="1.64210526" stroke-linecap="round" stroke-linejoin="round"></path>
            <path d="M0.783157895,7.16704805 L33.6757895,7.16704805" stroke="#A4AFB7" stroke-width="1.64210526" stroke-linecap="round" stroke-linejoin="round"></path>
            <path d="M4.69894737,3.98169336 C4.69894737,4.42127231 4.34809263,4.77803204 3.91578947,4.77803204 C3.48348632,4.77803204 3.13263158,4.42127231 3.13263158,3.98169336 C3.13263158,3.54211442 3.48348632,3.18535469 3.91578947,3.18535469 C4.34809263,3.18535469 4.69894737,3.54211442 4.69894737,3.98169336" fill="#A4AFB7"></path>
            <path d="M7.83157895,3.98169336 C7.83157895,4.42127231 7.48072421,4.77803204 7.04842105,4.77803204 C6.61611789,4.77803204 6.26526316,4.42127231 6.26526316,3.98169336 C6.26526316,3.54211442 6.61611789,3.18535469 7.04842105,3.18535469 C7.48072421,3.18535469 7.83157895,3.54211442 7.83157895,3.98169336" fill="#A4AFB7"></path>
            <path d="M10.9642105,3.98169336 C10.9642105,4.42127231 10.6133558,4.77803204 10.1810526,4.77803204 C9.74874947,4.77803204 9.39789474,4.42127231 9.39789474,3.98169336 C9.39789474,3.54211442 9.74874947,3.18535469 10.1810526,3.18535469 C10.6133558,3.18535469 10.9642105,3.54211442 10.9642105,3.98169336" fill="#A4AFB7"></path>
            <path d="M34.1365169,26.8708134 C34.1365169,28.1503607 33.1068012,29.187435 31.8363329,29.187435 C30.5658646,29.187435 29.5361489,28.1503607 29.5361489,26.8708134 C29.5361489,25.5912661 30.5658646,24.5541918 31.8363329,24.5541918 C33.1068012,24.5541918 34.1365169,25.5912661 34.1365169,26.8708134 Z" stroke="#71D7F7" stroke-width="1.64210526" stroke-linecap="round" stroke-linejoin="round"></path>
            <path d="M27.2359646,34.2998327 C27.2359646,31.7407381 29.295396,29.6665896 31.8363327,29.6665896 C34.3772693,29.6665896 36.4367007,31.7407381 36.4367007,34.2998327" stroke="#71D7F7" stroke-width="1.64210526" stroke-linecap="round" stroke-linejoin="round"></path>
            <ellipse stroke="#A4AFB7" stroke-width="1.64210526" cx="31.8315789" cy="28.173913" rx="7.83157895" ry="7.96338673"></ellipse>
            <path d="M30.3157904,20.3595706 C26.7159377,21.07743 24,24.3031628 24,28.173913 C24,28.9159512 24.0998118,29.6342848 24.2865285,30.3157895 L4.7313528,30.3157895 C4.59182823,30.3157895 4.47872122,30.2026825 4.47872122,30.0631579 L4.47872122,11.6210459 C4.47872122,11.4815214 4.59182823,11.3684144 4.7313528,11.3684144 L30.0631588,11.3684144 C30.2026834,11.3684144 30.3157904,11.4815214 30.3157904,11.6210459 L30.3157904,20.3595706 Z" stroke="#A4AFB7" stroke-width="1.64210526"></path>
        </g>
    </g>
</svg>